<?xml version="1.0" encoding="utf-8"?>
<!-- Generator: Adobe Illustrator 21.1.0, SVG Export Plug-In . SVG Version: 6.00 Build 0)  -->
<svg version="1.1" id="Layer_1" xmlns="http://www.w3.org/2000/svg" xmlns:xlink="http://www.w3.org/1999/xlink" x="0px" y="0px"
	 viewBox="0 0 548.6 390" style="enable-background:new 0 0 548.6 390;" xml:space="preserve">
<style type="text/css">
	.st0{fill:none;stroke:#575756;stroke-width:1.5;stroke-miterlimit:10;}
	.st1{fill:none;stroke:#007BA6;stroke-width:1.3;stroke-miterlimit:10;}
	.st2{fill:#007BA6;}
	.st3{font-family:'Arial';}
	.st4{font-size:16px;}
	.st5{fill:#221E20;}
	.st6{fill:none;stroke:#26231E;stroke-miterlimit:10;}
	.st7{fill:#26231E;}
	.st8{fill:none;stroke:#312782;stroke-linecap:round;stroke-linejoin:round;stroke-miterlimit:10;}
	.st9{fill:#1D1D1B;}
	.st10{fill:none;stroke:#2B2422;stroke-width:1.0581;stroke-miterlimit:10;}
	.st11{fill:none;stroke:#93C01F;stroke-linecap:round;stroke-linejoin:round;stroke-miterlimit:10;}
	.st12{fill:none;stroke:#5180BC;stroke-linecap:round;stroke-linejoin:round;stroke-miterlimit:10;}
	.st13{fill:#F8B034;stroke:#5E5B5C;stroke-linecap:round;stroke-linejoin:round;stroke-miterlimit:10;}
	.st14{fill:none;stroke:#E20613;stroke-linecap:round;stroke-linejoin:round;stroke-miterlimit:10;}
	.st15{fill:none;stroke:#941B80;stroke-linecap:round;stroke-linejoin:round;stroke-miterlimit:10;}
	.st16{fill:#7A6958;}
	.st17{font-family:'HelveticaNeueLT-Light';}
</style>
<path class="st0" d="M546.8,389.3H1.8c-0.6,0-1-0.4-1-1V2.8c0-1.1,0.9-2,2-2h544.1c0.6,0,1,0.4,1,1v386.5
	C547.8,388.9,547.4,389.3,546.8,389.3z"/>
<g>
	<g>
		<line class="st1" x1="21.3" y1="23.7" x2="21.3" y2="208.5"/>
		<g>
			<path class="st2" d="M21.3,216.3c-1.4-3.7-3.7-8.3-6.2-11.1l6.2,2.2l6.2-2.2C25,208.1,22.6,212.6,21.3,216.3z"/>
		</g>
	</g>
</g>
<g>
	<text transform="matrix(1.001 0 0 1 30.7604 125.1427)" class="st2 st3 st4">100 min</text>
</g>
<text transform="matrix(1 0 0 1 256.8405 370.7766)" class="st5 st3 st4">Loading</text>
<g>
	<g>
		<line class="st6" x1="283.4" y1="316.6" x2="283.4" y2="347.2"/>
		<g>
			<path class="st7" d="M283.4,353.3c-1.1-2.8-2.9-6.4-4.8-8.5l4.8,1.7l4.8-1.7C286.2,346.9,284.4,350.4,283.4,353.3z"/>
		</g>
	</g>
</g>
<g>
	<g>
		<line class="st6" x1="283.4" y1="161.6" x2="283.4" y2="192.2"/>
		<g>
			<path class="st7" d="M283.4,198.3c-1.1-2.8-2.9-6.4-4.8-8.5l4.8,1.7l4.8-1.7C286.2,191.9,284.4,195.4,283.4,198.3z"/>
		</g>
	</g>
</g>
<text transform="matrix(1 0 0 1 112.2921 174.5815)"><tspan x="0" y="0" class="st5 st3 st4">Reverse transcription</tspan><tspan x="84.5" y="19.2" class="st5 st3 st4">(optional)</tspan></text>
<line class="st8" x1="217.9" y1="68.1" x2="348.5" y2="68.1"/>
<g>
	<path class="st9" d="M354.7,68.2h-2.2l-0.4,1.2h0.6c0.1,0,0.1,0,0.2,0s0.1,0.1,0.1,0.1c0,0,0,0.1-0.1,0.1s-0.1,0-0.2,0h-1.2
		c-0.1,0-0.1,0-0.2,0s-0.1-0.1-0.1-0.1c0,0,0-0.1,0.1-0.1s0.1,0,0.2,0h0.3l1.4-3.9h-1c-0.1,0-0.1,0-0.2,0s-0.1-0.1-0.1-0.1
		s0-0.1,0.1-0.1s0.1,0,0.2,0h1.7l1.6,4.2h0.3c0.1,0,0.1,0,0.2,0s0.1,0.1,0.1,0.1c0,0,0,0.1-0.1,0.1s-0.1,0-0.2,0h-1.2
		c-0.1,0-0.1,0-0.2,0s-0.1-0.1-0.1-0.1c0,0,0-0.1,0.1-0.1s0.1,0,0.2,0h0.6L354.7,68.2z M354.5,67.9l-0.9-2.4h-0.1l-0.9,2.4H354.5z"
		/>
	<path class="st9" d="M359.5,68.2h-2.2l-0.4,1.2h0.6c0.1,0,0.1,0,0.2,0s0.1,0.1,0.1,0.1c0,0,0,0.1-0.1,0.1s-0.1,0-0.2,0h-1.2
		c-0.1,0-0.1,0-0.2,0s-0.1-0.1-0.1-0.1c0,0,0-0.1,0.1-0.1s0.1,0,0.2,0h0.3l1.4-3.9h-1c-0.1,0-0.1,0-0.2,0s-0.1-0.1-0.1-0.1
		s0-0.1,0.1-0.1s0.1,0,0.2,0h1.7l1.6,4.2h0.3c0.1,0,0.1,0,0.2,0s0.1,0.1,0.1,0.1c0,0,0,0.1-0.1,0.1s-0.1,0-0.2,0h-1.2
		c-0.1,0-0.1,0-0.2,0s-0.1-0.1-0.1-0.1c0,0,0-0.1,0.1-0.1s0.1,0,0.2,0h0.6L359.5,68.2z M359.3,67.9l-0.9-2.4h-0.1l-0.9,2.4H359.3z"
		/>
	<path class="st9" d="M364.3,68.2h-2.2l-0.4,1.2h0.6c0.1,0,0.1,0,0.2,0s0.1,0.1,0.1,0.1c0,0,0,0.1-0.1,0.1s-0.1,0-0.2,0h-1.2
		c-0.1,0-0.1,0-0.2,0s-0.1-0.1-0.1-0.1c0,0,0-0.1,0.1-0.1s0.1,0,0.2,0h0.3l1.4-3.9h-1c-0.1,0-0.1,0-0.2,0s-0.1-0.1-0.1-0.1
		s0-0.1,0.1-0.1s0.1,0,0.2,0h1.7l1.6,4.2h0.3c0.1,0,0.1,0,0.2,0s0.1,0.1,0.1,0.1c0,0,0,0.1-0.1,0.1s-0.1,0-0.2,0h-1.2
		c-0.1,0-0.1,0-0.2,0s-0.1-0.1-0.1-0.1c0,0,0-0.1,0.1-0.1s0.1,0,0.2,0h0.6L364.3,68.2z M364.1,67.9l-0.9-2.4h-0.1l-0.9,2.4H364.1z"
		/>
	<path class="st9" d="M369.1,68.2h-2.2l-0.4,1.2h0.6c0.1,0,0.1,0,0.2,0s0.1,0.1,0.1,0.1c0,0,0,0.1-0.1,0.1s-0.1,0-0.2,0h-1.2
		c-0.1,0-0.1,0-0.2,0s-0.1-0.1-0.1-0.1c0,0,0-0.1,0.1-0.1s0.1,0,0.2,0h0.3l1.4-3.9h-1c-0.1,0-0.1,0-0.2,0s-0.1-0.1-0.1-0.1
		s0-0.1,0.1-0.1s0.1,0,0.2,0h1.7l1.6,4.2h0.3c0.1,0,0.1,0,0.2,0s0.1,0.1,0.1,0.1c0,0,0,0.1-0.1,0.1s-0.1,0-0.2,0h-1.2
		c-0.1,0-0.1,0-0.2,0s-0.1-0.1-0.1-0.1c0,0,0-0.1,0.1-0.1s0.1,0,0.2,0h0.6L369.1,68.2z M368.9,67.9l-0.9-2.4h-0.1l-0.9,2.4H368.9z"
		/>
	<path class="st9" d="M373.9,68.2h-2.2l-0.4,1.2h0.6c0.1,0,0.1,0,0.2,0s0.1,0.1,0.1,0.1c0,0,0,0.1-0.1,0.1s-0.1,0-0.2,0h-1.2
		c-0.1,0-0.1,0-0.2,0s-0.1-0.1-0.1-0.1c0,0,0-0.1,0.1-0.1s0.1,0,0.2,0h0.3l1.4-3.9h-1c-0.1,0-0.1,0-0.2,0s-0.1-0.1-0.1-0.1
		s0-0.1,0.1-0.1s0.1,0,0.2,0h1.7l1.6,4.2h0.3c0.1,0,0.1,0,0.2,0s0.1,0.1,0.1,0.1c0,0,0,0.1-0.1,0.1s-0.1,0-0.2,0h-1.2
		c-0.1,0-0.1,0-0.2,0s-0.1-0.1-0.1-0.1c0,0,0-0.1,0.1-0.1s0.1,0,0.2,0h0.6L373.9,68.2z M373.7,67.9l-0.9-2.4h-0.1l-0.9,2.4H373.7z"
		/>
	<path class="st9" d="M378.7,68.2h-2.2l-0.4,1.2h0.6c0.1,0,0.1,0,0.2,0s0.1,0.1,0.1,0.1c0,0,0,0.1-0.1,0.1s-0.1,0-0.2,0h-1.2
		c-0.1,0-0.1,0-0.2,0s-0.1-0.1-0.1-0.1c0,0,0-0.1,0.1-0.1s0.1,0,0.2,0h0.3l1.4-3.9h-1c-0.1,0-0.1,0-0.2,0s-0.1-0.1-0.1-0.1
		s0-0.1,0.1-0.1s0.1,0,0.2,0h1.7l1.6,4.2h0.3c0.1,0,0.1,0,0.2,0s0.1,0.1,0.1,0.1c0,0,0,0.1-0.1,0.1s-0.1,0-0.2,0h-1.2
		c-0.1,0-0.1,0-0.2,0s-0.1-0.1-0.1-0.1c0,0,0-0.1,0.1-0.1s0.1,0,0.2,0h0.6L378.7,68.2z M378.5,67.9l-0.9-2.4h-0.1l-0.9,2.4H378.5z"
		/>
	<path class="st9" d="M383.5,68.2h-2.2l-0.4,1.2h0.6c0.1,0,0.1,0,0.2,0s0.1,0.1,0.1,0.1c0,0,0,0.1-0.1,0.1s-0.1,0-0.2,0h-1.2
		c-0.1,0-0.1,0-0.2,0s-0.1-0.1-0.1-0.1c0,0,0-0.1,0.1-0.1s0.1,0,0.2,0h0.3l1.4-3.9h-1c-0.1,0-0.1,0-0.2,0s-0.1-0.1-0.1-0.1
		s0-0.1,0.1-0.1s0.1,0,0.2,0h1.7l1.6,4.2h0.3c0.1,0,0.1,0,0.2,0s0.1,0.1,0.1,0.1c0,0,0,0.1-0.1,0.1s-0.1,0-0.2,0h-1.2
		c-0.1,0-0.1,0-0.2,0s-0.1-0.1-0.1-0.1c0,0,0-0.1,0.1-0.1s0.1,0,0.2,0h0.6L383.5,68.2z M383.3,67.9l-0.9-2.4h-0.1l-0.9,2.4H383.3z"
		/>
	<path class="st9" d="M388.3,68.2h-2.2l-0.4,1.2h0.6c0.1,0,0.1,0,0.2,0s0.1,0.1,0.1,0.1c0,0,0,0.1-0.1,0.1s-0.1,0-0.2,0h-1.2
		c-0.1,0-0.1,0-0.2,0s-0.1-0.1-0.1-0.1c0,0,0-0.1,0.1-0.1s0.1,0,0.2,0h0.3l1.4-3.9h-1c-0.1,0-0.1,0-0.2,0s-0.1-0.1-0.1-0.1
		s0-0.1,0.1-0.1s0.1,0,0.2,0h1.7l1.6,4.2h0.3c0.1,0,0.1,0,0.2,0s0.1,0.1,0.1,0.1c0,0,0,0.1-0.1,0.1s-0.1,0-0.2,0h-1.2
		c-0.1,0-0.1,0-0.2,0s-0.1-0.1-0.1-0.1c0,0,0-0.1,0.1-0.1s0.1,0,0.2,0h0.6L388.3,68.2z M388.1,67.9l-0.9-2.4h-0.1l-0.9,2.4H388.1z"
		/>
	<path class="st9" d="M393.1,68.2h-2.2l-0.4,1.2h0.6c0.1,0,0.1,0,0.2,0s0.1,0.1,0.1,0.1c0,0,0,0.1-0.1,0.1s-0.1,0-0.2,0h-1.2
		c-0.1,0-0.1,0-0.2,0s-0.1-0.1-0.1-0.1c0,0,0-0.1,0.1-0.1s0.1,0,0.2,0h0.3l1.4-3.9h-1c-0.1,0-0.1,0-0.2,0s-0.1-0.1-0.1-0.1
		s0-0.1,0.1-0.1s0.1,0,0.2,0h1.7l1.6,4.2h0.3c0.1,0,0.1,0,0.2,0s0.1,0.1,0.1,0.1c0,0,0,0.1-0.1,0.1s-0.1,0-0.2,0h-1.2
		c-0.1,0-0.1,0-0.2,0s-0.1-0.1-0.1-0.1c0,0,0-0.1,0.1-0.1s0.1,0,0.2,0h0.6L393.1,68.2z M392.9,67.9l-0.9-2.4h-0.1l-0.9,2.4H392.9z"
		/>
	<path class="st9" d="M397.9,68.2h-2.2l-0.4,1.2h0.6c0.1,0,0.1,0,0.2,0s0.1,0.1,0.1,0.1c0,0,0,0.1-0.1,0.1s-0.1,0-0.2,0h-1.2
		c-0.1,0-0.1,0-0.2,0s-0.1-0.1-0.1-0.1c0,0,0-0.1,0.1-0.1s0.1,0,0.2,0h0.3l1.4-3.9h-1c-0.1,0-0.1,0-0.2,0s-0.1-0.1-0.1-0.1
		s0-0.1,0.1-0.1s0.1,0,0.2,0h1.7l1.6,4.2h0.3c0.1,0,0.1,0,0.2,0s0.1,0.1,0.1,0.1c0,0,0,0.1-0.1,0.1s-0.1,0-0.2,0h-1.2
		c-0.1,0-0.1,0-0.2,0s-0.1-0.1-0.1-0.1c0,0,0-0.1,0.1-0.1s0.1,0,0.2,0h0.6L397.9,68.2z M397.7,67.9l-0.9-2.4h-0.1l-0.9,2.4H397.7z"
		/>
	<path class="st9" d="M402.7,68.2h-2.2l-0.4,1.2h0.6c0.1,0,0.1,0,0.2,0s0.1,0.1,0.1,0.1c0,0,0,0.1-0.1,0.1s-0.1,0-0.2,0h-1.2
		c-0.1,0-0.1,0-0.2,0s-0.1-0.1-0.1-0.1c0,0,0-0.1,0.1-0.1s0.1,0,0.2,0h0.3l1.4-3.9h-1c-0.1,0-0.1,0-0.2,0s-0.1-0.1-0.1-0.1
		s0-0.1,0.1-0.1s0.1,0,0.2,0h1.7l1.6,4.2h0.3c0.1,0,0.1,0,0.2,0s0.1,0.1,0.1,0.1c0,0,0,0.1-0.1,0.1s-0.1,0-0.2,0h-1.2
		c-0.1,0-0.1,0-0.2,0s-0.1-0.1-0.1-0.1c0,0,0-0.1,0.1-0.1s0.1,0,0.2,0h0.6L402.7,68.2z M402.5,67.9l-0.9-2.4h-0.1l-0.9,2.4H402.5z"
		/>
	<path class="st9" d="M407.5,68.2h-2.2l-0.4,1.2h0.6c0.1,0,0.1,0,0.2,0s0.1,0.1,0.1,0.1c0,0,0,0.1-0.1,0.1s-0.1,0-0.2,0h-1.2
		c-0.1,0-0.1,0-0.2,0s-0.1-0.1-0.1-0.1c0,0,0-0.1,0.1-0.1s0.1,0,0.2,0h0.3l1.4-3.9h-1c-0.1,0-0.1,0-0.2,0s-0.1-0.1-0.1-0.1
		s0-0.1,0.1-0.1s0.1,0,0.2,0h1.7l1.6,4.2h0.3c0.1,0,0.1,0,0.2,0s0.1,0.1,0.1,0.1c0,0,0,0.1-0.1,0.1s-0.1,0-0.2,0h-1.2
		c-0.1,0-0.1,0-0.2,0s-0.1-0.1-0.1-0.1c0,0,0-0.1,0.1-0.1s0.1,0,0.2,0h0.6L407.5,68.2z M407.3,67.9l-0.9-2.4h-0.1l-0.9,2.4H407.3z"
		/>
	<path class="st9" d="M412.3,68.2h-2.2l-0.4,1.2h0.6c0.1,0,0.1,0,0.2,0s0.1,0.1,0.1,0.1c0,0,0,0.1-0.1,0.1s-0.1,0-0.2,0h-1.2
		c-0.1,0-0.1,0-0.2,0s-0.1-0.1-0.1-0.1c0,0,0-0.1,0.1-0.1s0.1,0,0.2,0h0.3l1.4-3.9h-1c-0.1,0-0.1,0-0.2,0s-0.1-0.1-0.1-0.1
		s0-0.1,0.1-0.1s0.1,0,0.2,0h1.7l1.6,4.2h0.3c0.1,0,0.1,0,0.2,0s0.1,0.1,0.1,0.1c0,0,0,0.1-0.1,0.1s-0.1,0-0.2,0h-1.2
		c-0.1,0-0.1,0-0.2,0s-0.1-0.1-0.1-0.1c0,0,0-0.1,0.1-0.1s0.1,0,0.2,0h0.6L412.3,68.2z M412.1,67.9l-0.9-2.4h-0.1l-0.9,2.4H412.1z"
		/>
	<path class="st9" d="M417.1,68.2h-2.2l-0.4,1.2h0.6c0.1,0,0.1,0,0.2,0s0.1,0.1,0.1,0.1c0,0,0,0.1-0.1,0.1s-0.1,0-0.2,0h-1.2
		c-0.1,0-0.1,0-0.2,0s-0.1-0.1-0.1-0.1c0,0,0-0.1,0.1-0.1s0.1,0,0.2,0h0.3l1.4-3.9h-1c-0.1,0-0.1,0-0.2,0s-0.1-0.1-0.1-0.1
		s0-0.1,0.1-0.1s0.1,0,0.2,0h1.7l1.6,4.2h0.3c0.1,0,0.1,0,0.2,0s0.1,0.1,0.1,0.1c0,0,0,0.1-0.1,0.1s-0.1,0-0.2,0h-1.2
		c-0.1,0-0.1,0-0.2,0s-0.1-0.1-0.1-0.1c0,0,0-0.1,0.1-0.1s0.1,0,0.2,0h0.6L417.1,68.2z M416.9,67.9l-0.9-2.4h-0.1l-0.9,2.4H416.9z"
		/>
	<path class="st9" d="M421.9,68.2h-2.2l-0.4,1.2h0.6c0.1,0,0.1,0,0.2,0s0.1,0.1,0.1,0.1c0,0,0,0.1-0.1,0.1s-0.1,0-0.2,0h-1.2
		c-0.1,0-0.1,0-0.2,0s-0.1-0.1-0.1-0.1c0,0,0-0.1,0.1-0.1s0.1,0,0.2,0h0.3l1.4-3.9h-1c-0.1,0-0.1,0-0.2,0s-0.1-0.1-0.1-0.1
		s0-0.1,0.1-0.1s0.1,0,0.2,0h1.7l1.6,4.2h0.3c0.1,0,0.1,0,0.2,0s0.1,0.1,0.1,0.1c0,0,0,0.1-0.1,0.1s-0.1,0-0.2,0h-1.2
		c-0.1,0-0.1,0-0.2,0s-0.1-0.1-0.1-0.1c0,0,0-0.1,0.1-0.1s0.1,0,0.2,0h0.6L421.9,68.2z M421.7,67.9l-0.9-2.4h-0.1l-0.9,2.4H421.7z"
		/>
	<path class="st9" d="M426.7,68.2h-2.2l-0.4,1.2h0.6c0.1,0,0.1,0,0.2,0s0.1,0.1,0.1,0.1c0,0,0,0.1-0.1,0.1s-0.1,0-0.2,0h-1.2
		c-0.1,0-0.1,0-0.2,0s-0.1-0.1-0.1-0.1c0,0,0-0.1,0.1-0.1s0.1,0,0.2,0h0.3l1.4-3.9h-1c-0.1,0-0.1,0-0.2,0s-0.1-0.1-0.1-0.1
		s0-0.1,0.1-0.1s0.1,0,0.2,0h1.7l1.6,4.2h0.3c0.1,0,0.1,0,0.2,0s0.1,0.1,0.1,0.1c0,0,0,0.1-0.1,0.1s-0.1,0-0.2,0h-1.2
		c-0.1,0-0.1,0-0.2,0s-0.1-0.1-0.1-0.1c0,0,0-0.1,0.1-0.1s0.1,0,0.2,0h0.6L426.7,68.2z M426.5,67.9l-0.9-2.4h-0.1l-0.9,2.4H426.5z"
		/>
	<path class="st9" d="M431.5,68.2h-2.2l-0.4,1.2h0.6c0.1,0,0.1,0,0.2,0s0.1,0.1,0.1,0.1c0,0,0,0.1-0.1,0.1s-0.1,0-0.2,0h-1.2
		c-0.1,0-0.1,0-0.2,0s-0.1-0.1-0.1-0.1c0,0,0-0.1,0.1-0.1s0.1,0,0.2,0h0.3l1.4-3.9h-1c-0.1,0-0.1,0-0.2,0s-0.1-0.1-0.1-0.1
		s0-0.1,0.1-0.1s0.1,0,0.2,0h1.7l1.6,4.2h0.3c0.1,0,0.1,0,0.2,0s0.1,0.1,0.1,0.1c0,0,0,0.1-0.1,0.1s-0.1,0-0.2,0h-1.2
		c-0.1,0-0.1,0-0.2,0s-0.1-0.1-0.1-0.1c0,0,0-0.1,0.1-0.1s0.1,0,0.2,0h0.6L431.5,68.2z M431.3,67.9l-0.9-2.4h-0.1l-0.9,2.4H431.3z"
		/>
</g>
<text transform="matrix(1 0 0 1 226.8121 51.7853)" class="st5 st3 st4">Full-length RNA</text>
<text transform="matrix(1 0 0 1 142.5123 100.5555)"><tspan x="0" y="0" class="st5 st3 st4">Primer annealing</tspan><tspan x="39.1" y="19.2" class="st5 st3 st4">and ligation</tspan></text>
<path class="st10" d="M283.4,108.3c0-6.5,5.2-11.7,11.7-11.7"/>
<g>
	<g>
		<line class="st6" x1="283.4" y1="84.1" x2="283.4" y2="114.7"/>
		<g>
			<path class="st7" d="M283.4,120.8c-1.1-2.8-2.9-6.4-4.8-8.5l4.8,1.7l4.8-1.7C286.2,114.4,284.4,117.9,283.4,120.8z"/>
		</g>
	</g>
</g>
<line class="st8" x1="217.9" y1="136.5" x2="348.5" y2="136.5"/>
<g>
	<path class="st9" d="M354.7,136.6h-2.2l-0.4,1.2h0.6c0.1,0,0.1,0,0.2,0s0.1,0.1,0.1,0.1c0,0,0,0.1-0.1,0.1s-0.1,0-0.2,0h-1.2
		c-0.1,0-0.1,0-0.2,0s-0.1-0.1-0.1-0.1c0,0,0-0.1,0.1-0.1s0.1,0,0.2,0h0.3l1.4-3.9h-1c-0.1,0-0.1,0-0.2,0s-0.1-0.1-0.1-0.1
		s0-0.1,0.1-0.1s0.1,0,0.2,0h1.7l1.6,4.2h0.3c0.1,0,0.1,0,0.2,0s0.1,0.1,0.1,0.1c0,0,0,0.1-0.1,0.1s-0.1,0-0.2,0h-1.2
		c-0.1,0-0.1,0-0.2,0s-0.1-0.1-0.1-0.1c0,0,0-0.1,0.1-0.1s0.1,0,0.2,0h0.6L354.7,136.6z M354.5,136.3l-0.9-2.4h-0.1l-0.9,2.4H354.5z
		"/>
	<path class="st9" d="M359.5,136.6h-2.2l-0.4,1.2h0.6c0.1,0,0.1,0,0.2,0s0.1,0.1,0.1,0.1c0,0,0,0.1-0.1,0.1s-0.1,0-0.2,0h-1.2
		c-0.1,0-0.1,0-0.2,0S356,138,356,138c0,0,0-0.1,0.1-0.1s0.1,0,0.2,0h0.3l1.4-3.9h-1c-0.1,0-0.1,0-0.2,0s-0.1-0.1-0.1-0.1
		s0-0.1,0.1-0.1s0.1,0,0.2,0h1.7l1.6,4.2h0.3c0.1,0,0.1,0,0.2,0s0.1,0.1,0.1,0.1c0,0,0,0.1-0.1,0.1s-0.1,0-0.2,0h-1.2
		c-0.1,0-0.1,0-0.2,0s-0.1-0.1-0.1-0.1c0,0,0-0.1,0.1-0.1s0.1,0,0.2,0h0.6L359.5,136.6z M359.3,136.3l-0.9-2.4h-0.1l-0.9,2.4H359.3z
		"/>
	<path class="st9" d="M364.3,136.6h-2.2l-0.4,1.2h0.6c0.1,0,0.1,0,0.2,0s0.1,0.1,0.1,0.1c0,0,0,0.1-0.1,0.1s-0.1,0-0.2,0h-1.2
		c-0.1,0-0.1,0-0.2,0s-0.1-0.1-0.1-0.1c0,0,0-0.1,0.1-0.1s0.1,0,0.2,0h0.3l1.4-3.9h-1c-0.1,0-0.1,0-0.2,0s-0.1-0.1-0.1-0.1
		s0-0.1,0.1-0.1s0.1,0,0.2,0h1.7l1.6,4.2h0.3c0.1,0,0.1,0,0.2,0s0.1,0.1,0.1,0.1c0,0,0,0.1-0.1,0.1s-0.1,0-0.2,0h-1.2
		c-0.1,0-0.1,0-0.2,0s-0.1-0.1-0.1-0.1c0,0,0-0.1,0.1-0.1s0.1,0,0.2,0h0.6L364.3,136.6z M364.1,136.3l-0.9-2.4h-0.1l-0.9,2.4H364.1z
		"/>
	<path class="st9" d="M369.1,136.6h-2.2l-0.4,1.2h0.6c0.1,0,0.1,0,0.2,0s0.1,0.1,0.1,0.1c0,0,0,0.1-0.1,0.1s-0.1,0-0.2,0h-1.2
		c-0.1,0-0.1,0-0.2,0s-0.1-0.1-0.1-0.1c0,0,0-0.1,0.1-0.1s0.1,0,0.2,0h0.3l1.4-3.9h-1c-0.1,0-0.1,0-0.2,0s-0.1-0.1-0.1-0.1
		s0-0.1,0.1-0.1s0.1,0,0.2,0h1.7l1.6,4.2h0.3c0.1,0,0.1,0,0.2,0s0.1,0.1,0.1,0.1c0,0,0,0.1-0.1,0.1s-0.1,0-0.2,0h-1.2
		c-0.1,0-0.1,0-0.2,0s-0.1-0.1-0.1-0.1c0,0,0-0.1,0.1-0.1s0.1,0,0.2,0h0.6L369.1,136.6z M368.9,136.3l-0.9-2.4h-0.1l-0.9,2.4H368.9z
		"/>
	<path class="st9" d="M373.9,136.6h-2.2l-0.4,1.2h0.6c0.1,0,0.1,0,0.2,0s0.1,0.1,0.1,0.1c0,0,0,0.1-0.1,0.1s-0.1,0-0.2,0h-1.2
		c-0.1,0-0.1,0-0.2,0s-0.1-0.1-0.1-0.1c0,0,0-0.1,0.1-0.1s0.1,0,0.2,0h0.3l1.4-3.9h-1c-0.1,0-0.1,0-0.2,0s-0.1-0.1-0.1-0.1
		s0-0.1,0.1-0.1s0.1,0,0.2,0h1.7l1.6,4.2h0.3c0.1,0,0.1,0,0.2,0s0.1,0.1,0.1,0.1c0,0,0,0.1-0.1,0.1s-0.1,0-0.2,0h-1.2
		c-0.1,0-0.1,0-0.2,0s-0.1-0.1-0.1-0.1c0,0,0-0.1,0.1-0.1s0.1,0,0.2,0h0.6L373.9,136.6z M373.7,136.3l-0.9-2.4h-0.1l-0.9,2.4H373.7z
		"/>
	<path class="st9" d="M378.7,136.6h-2.2l-0.4,1.2h0.6c0.1,0,0.1,0,0.2,0s0.1,0.1,0.1,0.1c0,0,0,0.1-0.1,0.1s-0.1,0-0.2,0h-1.2
		c-0.1,0-0.1,0-0.2,0s-0.1-0.1-0.1-0.1c0,0,0-0.1,0.1-0.1s0.1,0,0.2,0h0.3l1.4-3.9h-1c-0.1,0-0.1,0-0.2,0s-0.1-0.1-0.1-0.1
		s0-0.1,0.1-0.1s0.1,0,0.2,0h1.7l1.6,4.2h0.3c0.1,0,0.1,0,0.2,0s0.1,0.1,0.1,0.1c0,0,0,0.1-0.1,0.1s-0.1,0-0.2,0h-1.2
		c-0.1,0-0.1,0-0.2,0s-0.1-0.1-0.1-0.1c0,0,0-0.1,0.1-0.1s0.1,0,0.2,0h0.6L378.7,136.6z M378.5,136.3l-0.9-2.4h-0.1l-0.9,2.4H378.5z
		"/>
	<path class="st9" d="M383.5,136.6h-2.2l-0.4,1.2h0.6c0.1,0,0.1,0,0.2,0s0.1,0.1,0.1,0.1c0,0,0,0.1-0.1,0.1s-0.1,0-0.2,0h-1.2
		c-0.1,0-0.1,0-0.2,0s-0.1-0.1-0.1-0.1c0,0,0-0.1,0.1-0.1s0.1,0,0.2,0h0.3l1.4-3.9h-1c-0.1,0-0.1,0-0.2,0s-0.1-0.1-0.1-0.1
		s0-0.1,0.1-0.1s0.1,0,0.2,0h1.7l1.6,4.2h0.3c0.1,0,0.1,0,0.2,0s0.1,0.1,0.1,0.1c0,0,0,0.1-0.1,0.1s-0.1,0-0.2,0h-1.2
		c-0.1,0-0.1,0-0.2,0s-0.1-0.1-0.1-0.1c0,0,0-0.1,0.1-0.1s0.1,0,0.2,0h0.6L383.5,136.6z M383.3,136.3l-0.9-2.4h-0.1l-0.9,2.4H383.3z
		"/>
	<path class="st9" d="M388.3,136.6h-2.2l-0.4,1.2h0.6c0.1,0,0.1,0,0.2,0s0.1,0.1,0.1,0.1c0,0,0,0.1-0.1,0.1s-0.1,0-0.2,0h-1.2
		c-0.1,0-0.1,0-0.2,0s-0.1-0.1-0.1-0.1c0,0,0-0.1,0.1-0.1s0.1,0,0.2,0h0.3l1.4-3.9h-1c-0.1,0-0.1,0-0.2,0s-0.1-0.1-0.1-0.1
		s0-0.1,0.1-0.1s0.1,0,0.2,0h1.7l1.6,4.2h0.3c0.1,0,0.1,0,0.2,0s0.1,0.1,0.1,0.1c0,0,0,0.1-0.1,0.1s-0.1,0-0.2,0h-1.2
		c-0.1,0-0.1,0-0.2,0s-0.1-0.1-0.1-0.1c0,0,0-0.1,0.1-0.1s0.1,0,0.2,0h0.6L388.3,136.6z M388.1,136.3l-0.9-2.4h-0.1l-0.9,2.4H388.1z
		"/>
	<path class="st9" d="M393.1,136.6h-2.2l-0.4,1.2h0.6c0.1,0,0.1,0,0.2,0s0.1,0.1,0.1,0.1c0,0,0,0.1-0.1,0.1s-0.1,0-0.2,0h-1.2
		c-0.1,0-0.1,0-0.2,0s-0.1-0.1-0.1-0.1c0,0,0-0.1,0.1-0.1s0.1,0,0.2,0h0.3l1.4-3.9h-1c-0.1,0-0.1,0-0.2,0s-0.1-0.1-0.1-0.1
		s0-0.1,0.1-0.1s0.1,0,0.2,0h1.7l1.6,4.2h0.3c0.1,0,0.1,0,0.2,0s0.1,0.1,0.1,0.1c0,0,0,0.1-0.1,0.1s-0.1,0-0.2,0h-1.2
		c-0.1,0-0.1,0-0.2,0s-0.1-0.1-0.1-0.1c0,0,0-0.1,0.1-0.1s0.1,0,0.2,0h0.6L393.1,136.6z M392.9,136.3l-0.9-2.4h-0.1l-0.9,2.4H392.9z
		"/>
	<path class="st9" d="M397.9,136.6h-2.2l-0.4,1.2h0.6c0.1,0,0.1,0,0.2,0s0.1,0.1,0.1,0.1c0,0,0,0.1-0.1,0.1s-0.1,0-0.2,0h-1.2
		c-0.1,0-0.1,0-0.2,0s-0.1-0.1-0.1-0.1c0,0,0-0.1,0.1-0.1s0.1,0,0.2,0h0.3l1.4-3.9h-1c-0.1,0-0.1,0-0.2,0s-0.1-0.1-0.1-0.1
		s0-0.1,0.1-0.1s0.1,0,0.2,0h1.7l1.6,4.2h0.3c0.1,0,0.1,0,0.2,0s0.1,0.1,0.1,0.1c0,0,0,0.1-0.1,0.1s-0.1,0-0.2,0h-1.2
		c-0.1,0-0.1,0-0.2,0s-0.1-0.1-0.1-0.1c0,0,0-0.1,0.1-0.1s0.1,0,0.2,0h0.6L397.9,136.6z M397.7,136.3l-0.9-2.4h-0.1l-0.9,2.4H397.7z
		"/>
	<path class="st9" d="M402.7,136.6h-2.2l-0.4,1.2h0.6c0.1,0,0.1,0,0.2,0s0.1,0.1,0.1,0.1c0,0,0,0.1-0.1,0.1s-0.1,0-0.2,0h-1.2
		c-0.1,0-0.1,0-0.2,0s-0.1-0.1-0.1-0.1c0,0,0-0.1,0.1-0.1s0.1,0,0.2,0h0.3l1.4-3.9h-1c-0.1,0-0.1,0-0.2,0s-0.1-0.1-0.1-0.1
		s0-0.1,0.1-0.1s0.1,0,0.2,0h1.7l1.6,4.2h0.3c0.1,0,0.1,0,0.2,0s0.1,0.1,0.1,0.1c0,0,0,0.1-0.1,0.1s-0.1,0-0.2,0h-1.2
		c-0.1,0-0.1,0-0.2,0s-0.1-0.1-0.1-0.1c0,0,0-0.1,0.1-0.1s0.1,0,0.2,0h0.6L402.7,136.6z M402.5,136.3l-0.9-2.4h-0.1l-0.9,2.4H402.5z
		"/>
	<path class="st9" d="M407.5,136.6h-2.2l-0.4,1.2h0.6c0.1,0,0.1,0,0.2,0s0.1,0.1,0.1,0.1c0,0,0,0.1-0.1,0.1s-0.1,0-0.2,0h-1.2
		c-0.1,0-0.1,0-0.2,0s-0.1-0.1-0.1-0.1c0,0,0-0.1,0.1-0.1s0.1,0,0.2,0h0.3l1.4-3.9h-1c-0.1,0-0.1,0-0.2,0s-0.1-0.1-0.1-0.1
		s0-0.1,0.1-0.1s0.1,0,0.2,0h1.7l1.6,4.2h0.3c0.1,0,0.1,0,0.2,0s0.1,0.1,0.1,0.1c0,0,0,0.1-0.1,0.1s-0.1,0-0.2,0h-1.2
		c-0.1,0-0.1,0-0.2,0s-0.1-0.1-0.1-0.1c0,0,0-0.1,0.1-0.1s0.1,0,0.2,0h0.6L407.5,136.6z M407.3,136.3l-0.9-2.4h-0.1l-0.9,2.4H407.3z
		"/>
	<path class="st9" d="M412.3,136.6h-2.2l-0.4,1.2h0.6c0.1,0,0.1,0,0.2,0s0.1,0.1,0.1,0.1c0,0,0,0.1-0.1,0.1s-0.1,0-0.2,0h-1.2
		c-0.1,0-0.1,0-0.2,0s-0.1-0.1-0.1-0.1c0,0,0-0.1,0.1-0.1s0.1,0,0.2,0h0.3l1.4-3.9h-1c-0.1,0-0.1,0-0.2,0s-0.1-0.1-0.1-0.1
		s0-0.1,0.1-0.1s0.1,0,0.2,0h1.7l1.6,4.2h0.3c0.1,0,0.1,0,0.2,0s0.1,0.1,0.1,0.1c0,0,0,0.1-0.1,0.1s-0.1,0-0.2,0h-1.2
		c-0.1,0-0.1,0-0.2,0s-0.1-0.1-0.1-0.1c0,0,0-0.1,0.1-0.1s0.1,0,0.2,0h0.6L412.3,136.6z M412.1,136.3l-0.9-2.4h-0.1l-0.9,2.4H412.1z
		"/>
	<path class="st9" d="M417.1,136.6h-2.2l-0.4,1.2h0.6c0.1,0,0.1,0,0.2,0s0.1,0.1,0.1,0.1c0,0,0,0.1-0.1,0.1s-0.1,0-0.2,0h-1.2
		c-0.1,0-0.1,0-0.2,0s-0.1-0.1-0.1-0.1c0,0,0-0.1,0.1-0.1s0.1,0,0.2,0h0.3l1.4-3.9h-1c-0.1,0-0.1,0-0.2,0s-0.1-0.1-0.1-0.1
		s0-0.1,0.1-0.1s0.1,0,0.2,0h1.7l1.6,4.2h0.3c0.1,0,0.1,0,0.2,0s0.1,0.1,0.1,0.1c0,0,0,0.1-0.1,0.1s-0.1,0-0.2,0h-1.2
		c-0.1,0-0.1,0-0.2,0s-0.1-0.1-0.1-0.1c0,0,0-0.1,0.1-0.1s0.1,0,0.2,0h0.6L417.1,136.6z M416.9,136.3l-0.9-2.4h-0.1l-0.9,2.4H416.9z
		"/>
	<path class="st9" d="M421.9,136.6h-2.2l-0.4,1.2h0.6c0.1,0,0.1,0,0.2,0s0.1,0.1,0.1,0.1c0,0,0,0.1-0.1,0.1s-0.1,0-0.2,0h-1.2
		c-0.1,0-0.1,0-0.2,0s-0.1-0.1-0.1-0.1c0,0,0-0.1,0.1-0.1s0.1,0,0.2,0h0.3l1.4-3.9h-1c-0.1,0-0.1,0-0.2,0s-0.1-0.1-0.1-0.1
		s0-0.1,0.1-0.1s0.1,0,0.2,0h1.7l1.6,4.2h0.3c0.1,0,0.1,0,0.2,0s0.1,0.1,0.1,0.1c0,0,0,0.1-0.1,0.1s-0.1,0-0.2,0h-1.2
		c-0.1,0-0.1,0-0.2,0s-0.1-0.1-0.1-0.1c0,0,0-0.1,0.1-0.1s0.1,0,0.2,0h0.6L421.9,136.6z M421.7,136.3l-0.9-2.4h-0.1l-0.9,2.4H421.7z
		"/>
	<path class="st9" d="M426.7,136.6h-2.2l-0.4,1.2h0.6c0.1,0,0.1,0,0.2,0s0.1,0.1,0.1,0.1c0,0,0,0.1-0.1,0.1s-0.1,0-0.2,0h-1.2
		c-0.1,0-0.1,0-0.2,0s-0.1-0.1-0.1-0.1c0,0,0-0.1,0.1-0.1s0.1,0,0.2,0h0.3l1.4-3.9h-1c-0.1,0-0.1,0-0.2,0s-0.1-0.1-0.1-0.1
		s0-0.1,0.1-0.1s0.1,0,0.2,0h1.7l1.6,4.2h0.3c0.1,0,0.1,0,0.2,0s0.1,0.1,0.1,0.1c0,0,0,0.1-0.1,0.1s-0.1,0-0.2,0h-1.2
		c-0.1,0-0.1,0-0.2,0s-0.1-0.1-0.1-0.1c0,0,0-0.1,0.1-0.1s0.1,0,0.2,0h0.6L426.7,136.6z M426.5,136.3l-0.9-2.4h-0.1l-0.9,2.4H426.5z
		"/>
	<path class="st9" d="M431.5,136.6h-2.2l-0.4,1.2h0.6c0.1,0,0.1,0,0.2,0s0.1,0.1,0.1,0.1c0,0,0,0.1-0.1,0.1s-0.1,0-0.2,0h-1.2
		c-0.1,0-0.1,0-0.2,0s-0.1-0.1-0.1-0.1c0,0,0-0.1,0.1-0.1s0.1,0,0.2,0h0.3l1.4-3.9h-1c-0.1,0-0.1,0-0.2,0s-0.1-0.1-0.1-0.1
		s0-0.1,0.1-0.1s0.1,0,0.2,0h1.7l1.6,4.2h0.3c0.1,0,0.1,0,0.2,0s0.1,0.1,0.1,0.1c0,0,0,0.1-0.1,0.1s-0.1,0-0.2,0h-1.2
		c-0.1,0-0.1,0-0.2,0s-0.1-0.1-0.1-0.1c0,0,0-0.1,0.1-0.1s0.1,0,0.2,0h0.6L431.5,136.6z M431.3,136.3l-0.9-2.4h-0.1l-0.9,2.4H431.3z
		"/>
	<path class="st9" d="M436.3,136.6h-2.2l-0.4,1.2h0.6c0.1,0,0.1,0,0.2,0s0.1,0.1,0.1,0.1c0,0,0,0.1-0.1,0.1s-0.1,0-0.2,0h-1.2
		c-0.1,0-0.1,0-0.2,0s-0.1-0.1-0.1-0.1c0,0,0-0.1,0.1-0.1s0.1,0,0.2,0h0.3l1.4-3.9h-1c-0.1,0-0.1,0-0.2,0s-0.1-0.1-0.1-0.1
		s0-0.1,0.1-0.1s0.1,0,0.2,0h1.7l1.6,4.2h0.3c0.1,0,0.1,0,0.2,0s0.1,0.1,0.1,0.1c0,0,0,0.1-0.1,0.1s-0.1,0-0.2,0h-1.2
		c-0.1,0-0.1,0-0.2,0s-0.1-0.1-0.1-0.1c0,0,0-0.1,0.1-0.1s0.1,0,0.2,0h0.6L436.3,136.6z M436.1,136.3l-0.9-2.4h-0.1l-0.9,2.4H436.1z
		"/>
</g>
<g>
	<path class="st9" d="M411.4,140.8v3.9h0.9c0.1,0,0.1,0,0.2,0c0,0,0.1,0.1,0.1,0.1c0,0,0,0.1-0.1,0.1c0,0-0.1,0-0.2,0h-2
		c-0.1,0-0.1,0-0.2,0c0,0-0.1-0.1-0.1-0.1c0,0,0-0.1,0.1-0.1c0,0,0.1,0,0.2,0h0.9v-3.9h-1.3v1.1c0,0.1,0,0.1,0,0.2
		c0,0-0.1,0.1-0.1,0.1c0,0-0.1,0-0.1-0.1s0-0.1,0-0.2v-1.5h3.7v1.5c0,0.1,0,0.1,0,0.2c0,0-0.1,0.1-0.1,0.1c-0.1,0-0.1,0-0.1-0.1
		c0,0,0-0.1,0-0.2v-1.1H411.4z"/>
	<path class="st9" d="M416.2,140.8v3.9h0.9c0.1,0,0.1,0,0.2,0c0,0,0.1,0.1,0.1,0.1c0,0,0,0.1-0.1,0.1c0,0-0.1,0-0.2,0h-2
		c-0.1,0-0.1,0-0.2,0c0,0-0.1-0.1-0.1-0.1c0,0,0-0.1,0.1-0.1c0,0,0.1,0,0.2,0h0.9v-3.9h-1.3v1.1c0,0.1,0,0.1,0,0.2
		c0,0-0.1,0.1-0.1,0.1c0,0-0.1,0-0.1-0.1s0-0.1,0-0.2v-1.5h3.7v1.5c0,0.1,0,0.1,0,0.2c0,0-0.1,0.1-0.1,0.1c-0.1,0-0.1,0-0.1-0.1
		c0,0,0-0.1,0-0.2v-1.1H416.2z"/>
	<path class="st9" d="M421,140.8v3.9h0.9c0.1,0,0.1,0,0.2,0c0,0,0.1,0.1,0.1,0.1c0,0,0,0.1-0.1,0.1c0,0-0.1,0-0.2,0h-2
		c-0.1,0-0.1,0-0.2,0c0,0-0.1-0.1-0.1-0.1c0,0,0-0.1,0.1-0.1c0,0,0.1,0,0.2,0h0.9v-3.9h-1.3v1.1c0,0.1,0,0.1,0,0.2
		c0,0-0.1,0.1-0.1,0.1c0,0-0.1,0-0.1-0.1s0-0.1,0-0.2v-1.5h3.7v1.5c0,0.1,0,0.1,0,0.2c0,0-0.1,0.1-0.1,0.1c-0.1,0-0.1,0-0.1-0.1
		c0,0,0-0.1,0-0.2v-1.1H421z"/>
	<path class="st9" d="M425.8,140.8v3.9h0.9c0.1,0,0.1,0,0.2,0c0,0,0.1,0.1,0.1,0.1c0,0,0,0.1-0.1,0.1c0,0-0.1,0-0.2,0h-2
		c-0.1,0-0.1,0-0.2,0c0,0-0.1-0.1-0.1-0.1c0,0,0-0.1,0.1-0.1c0,0,0.1,0,0.2,0h0.9v-3.9h-1.3v1.1c0,0.1,0,0.1,0,0.2
		c0,0-0.1,0.1-0.1,0.1c0,0-0.1,0-0.1-0.1s0-0.1,0-0.2v-1.5h3.7v1.5c0,0.1,0,0.1,0,0.2c0,0-0.1,0.1-0.1,0.1c-0.1,0-0.1,0-0.1-0.1
		c0,0,0-0.1,0-0.2v-1.1H425.8z"/>
	<path class="st9" d="M430.6,140.8v3.9h0.9c0.1,0,0.1,0,0.2,0c0,0,0.1,0.1,0.1,0.1c0,0,0,0.1-0.1,0.1c0,0-0.1,0-0.2,0h-2
		c-0.1,0-0.1,0-0.2,0c0,0-0.1-0.1-0.1-0.1c0,0,0-0.1,0.1-0.1c0,0,0.1,0,0.2,0h0.9v-3.9h-1.3v1.1c0,0.1,0,0.1,0,0.2
		c0,0-0.1,0.1-0.1,0.1c0,0-0.1,0-0.1-0.1s0-0.1,0-0.2v-1.5h3.7v1.5c0,0.1,0,0.1,0,0.2c0,0-0.1,0.1-0.1,0.1c-0.1,0-0.1,0-0.1-0.1
		c0,0,0-0.1,0-0.2v-1.1H430.6z"/>
	<path class="st9" d="M435.4,140.8v3.9h0.9c0.1,0,0.1,0,0.2,0c0,0,0.1,0.1,0.1,0.1c0,0,0,0.1-0.1,0.1c0,0-0.1,0-0.2,0h-2
		c-0.1,0-0.1,0-0.2,0c0,0-0.1-0.1-0.1-0.1c0,0,0-0.1,0.1-0.1c0,0,0.1,0,0.2,0h0.9v-3.9h-1.3v1.1c0,0.1,0,0.1,0,0.2
		c0,0-0.1,0.1-0.1,0.1c0,0-0.1,0-0.1-0.1s0-0.1,0-0.2v-1.5h3.7v1.5c0,0.1,0,0.1,0,0.2c0,0-0.1,0.1-0.1,0.1c-0.1,0-0.1,0-0.1-0.1
		c0,0,0-0.1,0-0.2v-1.1H435.4z"/>
</g>
<line class="st8" x1="217.9" y1="216.6" x2="348.5" y2="216.6"/>
<g>
	<path class="st9" d="M354.7,216.7h-2.2l-0.4,1.2h0.6c0.1,0,0.1,0,0.2,0c0,0,0.1,0.1,0.1,0.1c0,0,0,0.1-0.1,0.1s-0.1,0-0.2,0h-1.2
		c-0.1,0-0.1,0-0.2,0s-0.1-0.1-0.1-0.1c0,0,0-0.1,0.1-0.1c0,0,0.1,0,0.2,0h0.3l1.4-3.9h-1c-0.1,0-0.1,0-0.2,0c0,0-0.1-0.1-0.1-0.1
		c0,0,0-0.1,0.1-0.1c0,0,0.1,0,0.2,0h1.7l1.6,4.2h0.3c0.1,0,0.1,0,0.2,0c0,0,0.1,0.1,0.1,0.1c0,0,0,0.1-0.1,0.1s-0.1,0-0.2,0h-1.2
		c-0.1,0-0.1,0-0.2,0s-0.1-0.1-0.1-0.1c0,0,0-0.1,0.1-0.1c0,0,0.1,0,0.2,0h0.6L354.7,216.7z M354.5,216.3l-0.9-2.4h-0.1l-0.9,2.4
		H354.5z"/>
	<path class="st9" d="M359.5,216.7h-2.2l-0.4,1.2h0.6c0.1,0,0.1,0,0.2,0c0,0,0.1,0.1,0.1,0.1c0,0,0,0.1-0.1,0.1s-0.1,0-0.2,0h-1.2
		c-0.1,0-0.1,0-0.2,0s-0.1-0.1-0.1-0.1c0,0,0-0.1,0.1-0.1c0,0,0.1,0,0.2,0h0.3l1.4-3.9h-1c-0.1,0-0.1,0-0.2,0c0,0-0.1-0.1-0.1-0.1
		c0,0,0-0.1,0.1-0.1c0,0,0.1,0,0.2,0h1.7l1.6,4.2h0.3c0.1,0,0.1,0,0.2,0c0,0,0.1,0.1,0.1,0.1c0,0,0,0.1-0.1,0.1s-0.1,0-0.2,0h-1.2
		c-0.1,0-0.1,0-0.2,0s-0.1-0.1-0.1-0.1c0,0,0-0.1,0.1-0.1c0,0,0.1,0,0.2,0h0.6L359.5,216.7z M359.3,216.3l-0.9-2.4h-0.1l-0.9,2.4
		H359.3z"/>
	<path class="st9" d="M364.3,216.7h-2.2l-0.4,1.2h0.6c0.1,0,0.1,0,0.2,0c0,0,0.1,0.1,0.1,0.1c0,0,0,0.1-0.1,0.1s-0.1,0-0.2,0h-1.2
		c-0.1,0-0.1,0-0.2,0s-0.1-0.1-0.1-0.1c0,0,0-0.1,0.1-0.1c0,0,0.1,0,0.2,0h0.3l1.4-3.9h-1c-0.1,0-0.1,0-0.2,0c0,0-0.1-0.1-0.1-0.1
		c0,0,0-0.1,0.1-0.1c0,0,0.1,0,0.2,0h1.7l1.6,4.2h0.3c0.1,0,0.1,0,0.2,0c0,0,0.1,0.1,0.1,0.1c0,0,0,0.1-0.1,0.1s-0.1,0-0.2,0h-1.2
		c-0.1,0-0.1,0-0.2,0s-0.1-0.1-0.1-0.1c0,0,0-0.1,0.1-0.1c0,0,0.1,0,0.2,0h0.6L364.3,216.7z M364.1,216.3l-0.9-2.4h-0.1l-0.9,2.4
		H364.1z"/>
	<path class="st9" d="M369.1,216.7h-2.2l-0.4,1.2h0.6c0.1,0,0.1,0,0.2,0c0,0,0.1,0.1,0.1,0.1c0,0,0,0.1-0.1,0.1s-0.1,0-0.2,0h-1.2
		c-0.1,0-0.1,0-0.2,0s-0.1-0.1-0.1-0.1c0,0,0-0.1,0.1-0.1c0,0,0.1,0,0.2,0h0.3l1.4-3.9h-1c-0.1,0-0.1,0-0.2,0c0,0-0.1-0.1-0.1-0.1
		c0,0,0-0.1,0.1-0.1c0,0,0.1,0,0.2,0h1.7l1.6,4.2h0.3c0.1,0,0.1,0,0.2,0c0,0,0.1,0.1,0.1,0.1c0,0,0,0.1-0.1,0.1s-0.1,0-0.2,0h-1.2
		c-0.1,0-0.1,0-0.2,0s-0.1-0.1-0.1-0.1c0,0,0-0.1,0.1-0.1c0,0,0.1,0,0.2,0h0.6L369.1,216.7z M368.9,216.3l-0.9-2.4h-0.1l-0.9,2.4
		H368.9z"/>
	<path class="st9" d="M373.9,216.7h-2.2l-0.4,1.2h0.6c0.1,0,0.1,0,0.2,0c0,0,0.1,0.1,0.1,0.1c0,0,0,0.1-0.1,0.1s-0.1,0-0.2,0h-1.2
		c-0.1,0-0.1,0-0.2,0s-0.1-0.1-0.1-0.1c0,0,0-0.1,0.1-0.1c0,0,0.1,0,0.2,0h0.3l1.4-3.9h-1c-0.1,0-0.1,0-0.2,0c0,0-0.1-0.1-0.1-0.1
		c0,0,0-0.1,0.1-0.1c0,0,0.1,0,0.2,0h1.7l1.6,4.2h0.3c0.1,0,0.1,0,0.2,0c0,0,0.1,0.1,0.1,0.1c0,0,0,0.1-0.1,0.1s-0.1,0-0.2,0h-1.2
		c-0.1,0-0.1,0-0.2,0s-0.1-0.1-0.1-0.1c0,0,0-0.1,0.1-0.1c0,0,0.1,0,0.2,0h0.6L373.9,216.7z M373.7,216.3l-0.9-2.4h-0.1l-0.9,2.4
		H373.7z"/>
	<path class="st9" d="M378.7,216.7h-2.2l-0.4,1.2h0.6c0.1,0,0.1,0,0.2,0c0,0,0.1,0.1,0.1,0.1c0,0,0,0.1-0.1,0.1s-0.1,0-0.2,0h-1.2
		c-0.1,0-0.1,0-0.2,0s-0.1-0.1-0.1-0.1c0,0,0-0.1,0.1-0.1c0,0,0.1,0,0.2,0h0.3l1.4-3.9h-1c-0.1,0-0.1,0-0.2,0c0,0-0.1-0.1-0.1-0.1
		c0,0,0-0.1,0.1-0.1c0,0,0.1,0,0.2,0h1.7l1.6,4.2h0.3c0.1,0,0.1,0,0.2,0c0,0,0.1,0.1,0.1,0.1c0,0,0,0.1-0.1,0.1s-0.1,0-0.2,0h-1.2
		c-0.1,0-0.1,0-0.2,0s-0.1-0.1-0.1-0.1c0,0,0-0.1,0.1-0.1c0,0,0.1,0,0.2,0h0.6L378.7,216.7z M378.5,216.3l-0.9-2.4h-0.1l-0.9,2.4
		H378.5z"/>
	<path class="st9" d="M383.5,216.7h-2.2l-0.4,1.2h0.6c0.1,0,0.1,0,0.2,0c0,0,0.1,0.1,0.1,0.1c0,0,0,0.1-0.1,0.1s-0.1,0-0.2,0h-1.2
		c-0.1,0-0.1,0-0.2,0s-0.1-0.1-0.1-0.1c0,0,0-0.1,0.1-0.1c0,0,0.1,0,0.2,0h0.3l1.4-3.9h-1c-0.1,0-0.1,0-0.2,0c0,0-0.1-0.1-0.1-0.1
		c0,0,0-0.1,0.1-0.1c0,0,0.1,0,0.2,0h1.7l1.6,4.2h0.3c0.1,0,0.1,0,0.2,0c0,0,0.1,0.1,0.1,0.1c0,0,0,0.1-0.1,0.1s-0.1,0-0.2,0h-1.2
		c-0.1,0-0.1,0-0.2,0s-0.1-0.1-0.1-0.1c0,0,0-0.1,0.1-0.1c0,0,0.1,0,0.2,0h0.6L383.5,216.7z M383.3,216.3l-0.9-2.4h-0.1l-0.9,2.4
		H383.3z"/>
	<path class="st9" d="M388.3,216.7h-2.2l-0.4,1.2h0.6c0.1,0,0.1,0,0.2,0c0,0,0.1,0.1,0.1,0.1c0,0,0,0.1-0.1,0.1s-0.1,0-0.2,0h-1.2
		c-0.1,0-0.1,0-0.2,0s-0.1-0.1-0.1-0.1c0,0,0-0.1,0.1-0.1c0,0,0.1,0,0.2,0h0.3l1.4-3.9h-1c-0.1,0-0.1,0-0.2,0c0,0-0.1-0.1-0.1-0.1
		c0,0,0-0.1,0.1-0.1c0,0,0.1,0,0.2,0h1.7l1.6,4.2h0.3c0.1,0,0.1,0,0.2,0c0,0,0.1,0.1,0.1,0.1c0,0,0,0.1-0.1,0.1s-0.1,0-0.2,0h-1.2
		c-0.1,0-0.1,0-0.2,0s-0.1-0.1-0.1-0.1c0,0,0-0.1,0.1-0.1c0,0,0.1,0,0.2,0h0.6L388.3,216.7z M388.1,216.3l-0.9-2.4h-0.1l-0.9,2.4
		H388.1z"/>
	<path class="st9" d="M393.1,216.7h-2.2l-0.4,1.2h0.6c0.1,0,0.1,0,0.2,0c0,0,0.1,0.1,0.1,0.1c0,0,0,0.1-0.1,0.1s-0.1,0-0.2,0h-1.2
		c-0.1,0-0.1,0-0.2,0s-0.1-0.1-0.1-0.1c0,0,0-0.1,0.1-0.1c0,0,0.1,0,0.2,0h0.3l1.4-3.9h-1c-0.1,0-0.1,0-0.2,0c0,0-0.1-0.1-0.1-0.1
		c0,0,0-0.1,0.1-0.1c0,0,0.1,0,0.2,0h1.7l1.6,4.2h0.3c0.1,0,0.1,0,0.2,0c0,0,0.1,0.1,0.1,0.1c0,0,0,0.1-0.1,0.1s-0.1,0-0.2,0h-1.2
		c-0.1,0-0.1,0-0.2,0s-0.1-0.1-0.1-0.1c0,0,0-0.1,0.1-0.1c0,0,0.1,0,0.2,0h0.6L393.1,216.7z M392.9,216.3l-0.9-2.4h-0.1l-0.9,2.4
		H392.9z"/>
	<path class="st9" d="M397.9,216.7h-2.2l-0.4,1.2h0.6c0.1,0,0.1,0,0.2,0c0,0,0.1,0.1,0.1,0.1c0,0,0,0.1-0.1,0.1s-0.1,0-0.2,0h-1.2
		c-0.1,0-0.1,0-0.2,0s-0.1-0.1-0.1-0.1c0,0,0-0.1,0.1-0.1c0,0,0.1,0,0.2,0h0.3l1.4-3.9h-1c-0.1,0-0.1,0-0.2,0c0,0-0.1-0.1-0.1-0.1
		c0,0,0-0.1,0.1-0.1c0,0,0.1,0,0.2,0h1.7l1.6,4.2h0.3c0.1,0,0.1,0,0.2,0c0,0,0.1,0.1,0.1,0.1c0,0,0,0.1-0.1,0.1s-0.1,0-0.2,0h-1.2
		c-0.1,0-0.1,0-0.2,0s-0.1-0.1-0.1-0.1c0,0,0-0.1,0.1-0.1c0,0,0.1,0,0.2,0h0.6L397.9,216.7z M397.7,216.3l-0.9-2.4h-0.1l-0.9,2.4
		H397.7z"/>
	<path class="st9" d="M402.7,216.7h-2.2l-0.4,1.2h0.6c0.1,0,0.1,0,0.2,0c0,0,0.1,0.1,0.1,0.1c0,0,0,0.1-0.1,0.1s-0.1,0-0.2,0h-1.2
		c-0.1,0-0.1,0-0.2,0s-0.1-0.1-0.1-0.1c0,0,0-0.1,0.1-0.1c0,0,0.1,0,0.2,0h0.3l1.4-3.9h-1c-0.1,0-0.1,0-0.2,0c0,0-0.1-0.1-0.1-0.1
		c0,0,0-0.1,0.1-0.1c0,0,0.1,0,0.2,0h1.7l1.6,4.2h0.3c0.1,0,0.1,0,0.2,0c0,0,0.1,0.1,0.1,0.1c0,0,0,0.1-0.1,0.1s-0.1,0-0.2,0h-1.2
		c-0.1,0-0.1,0-0.2,0s-0.1-0.1-0.1-0.1c0,0,0-0.1,0.1-0.1c0,0,0.1,0,0.2,0h0.6L402.7,216.7z M402.5,216.3l-0.9-2.4h-0.1l-0.9,2.4
		H402.5z"/>
	<path class="st9" d="M407.5,216.7h-2.2l-0.4,1.2h0.6c0.1,0,0.1,0,0.2,0c0,0,0.1,0.1,0.1,0.1c0,0,0,0.1-0.1,0.1s-0.1,0-0.2,0h-1.2
		c-0.1,0-0.1,0-0.2,0s-0.1-0.1-0.1-0.1c0,0,0-0.1,0.1-0.1c0,0,0.1,0,0.2,0h0.3l1.4-3.9h-1c-0.1,0-0.1,0-0.2,0c0,0-0.1-0.1-0.1-0.1
		c0,0,0-0.1,0.1-0.1c0,0,0.1,0,0.2,0h1.7l1.6,4.2h0.3c0.1,0,0.1,0,0.2,0c0,0,0.1,0.1,0.1,0.1c0,0,0,0.1-0.1,0.1s-0.1,0-0.2,0h-1.2
		c-0.1,0-0.1,0-0.2,0s-0.1-0.1-0.1-0.1c0,0,0-0.1,0.1-0.1c0,0,0.1,0,0.2,0h0.6L407.5,216.7z M407.3,216.3l-0.9-2.4h-0.1l-0.9,2.4
		H407.3z"/>
	<path class="st9" d="M412.3,216.7h-2.2l-0.4,1.2h0.6c0.1,0,0.1,0,0.2,0c0,0,0.1,0.1,0.1,0.1c0,0,0,0.1-0.1,0.1s-0.1,0-0.2,0h-1.2
		c-0.1,0-0.1,0-0.2,0s-0.1-0.1-0.1-0.1c0,0,0-0.1,0.1-0.1c0,0,0.1,0,0.2,0h0.3l1.4-3.9h-1c-0.1,0-0.1,0-0.2,0c0,0-0.1-0.1-0.1-0.1
		c0,0,0-0.1,0.1-0.1c0,0,0.1,0,0.2,0h1.7l1.6,4.2h0.3c0.1,0,0.1,0,0.2,0c0,0,0.1,0.1,0.1,0.1c0,0,0,0.1-0.1,0.1s-0.1,0-0.2,0h-1.2
		c-0.1,0-0.1,0-0.2,0s-0.1-0.1-0.1-0.1c0,0,0-0.1,0.1-0.1c0,0,0.1,0,0.2,0h0.6L412.3,216.7z M412.1,216.3l-0.9-2.4h-0.1l-0.9,2.4
		H412.1z"/>
	<path class="st9" d="M417.1,216.7h-2.2l-0.4,1.2h0.6c0.1,0,0.1,0,0.2,0c0,0,0.1,0.1,0.1,0.1c0,0,0,0.1-0.1,0.1s-0.1,0-0.2,0h-1.2
		c-0.1,0-0.1,0-0.2,0s-0.1-0.1-0.1-0.1c0,0,0-0.1,0.1-0.1c0,0,0.1,0,0.2,0h0.3l1.4-3.9h-1c-0.1,0-0.1,0-0.2,0c0,0-0.1-0.1-0.1-0.1
		c0,0,0-0.1,0.1-0.1c0,0,0.1,0,0.2,0h1.7l1.6,4.2h0.3c0.1,0,0.1,0,0.2,0c0,0,0.1,0.1,0.1,0.1c0,0,0,0.1-0.1,0.1s-0.1,0-0.2,0h-1.2
		c-0.1,0-0.1,0-0.2,0s-0.1-0.1-0.1-0.1c0,0,0-0.1,0.1-0.1c0,0,0.1,0,0.2,0h0.6L417.1,216.7z M416.9,216.3l-0.9-2.4h-0.1l-0.9,2.4
		H416.9z"/>
	<path class="st9" d="M421.9,216.7h-2.2l-0.4,1.2h0.6c0.1,0,0.1,0,0.2,0c0,0,0.1,0.1,0.1,0.1c0,0,0,0.1-0.1,0.1s-0.1,0-0.2,0h-1.2
		c-0.1,0-0.1,0-0.2,0s-0.1-0.1-0.1-0.1c0,0,0-0.1,0.1-0.1c0,0,0.1,0,0.2,0h0.3l1.4-3.9h-1c-0.1,0-0.1,0-0.2,0c0,0-0.1-0.1-0.1-0.1
		c0,0,0-0.1,0.1-0.1c0,0,0.1,0,0.2,0h1.7l1.6,4.2h0.3c0.1,0,0.1,0,0.2,0c0,0,0.1,0.1,0.1,0.1c0,0,0,0.1-0.1,0.1s-0.1,0-0.2,0h-1.2
		c-0.1,0-0.1,0-0.2,0s-0.1-0.1-0.1-0.1c0,0,0-0.1,0.1-0.1c0,0,0.1,0,0.2,0h0.6L421.9,216.7z M421.7,216.3l-0.9-2.4h-0.1l-0.9,2.4
		H421.7z"/>
	<path class="st9" d="M426.7,216.7h-2.2l-0.4,1.2h0.6c0.1,0,0.1,0,0.2,0c0,0,0.1,0.1,0.1,0.1c0,0,0,0.1-0.1,0.1s-0.1,0-0.2,0h-1.2
		c-0.1,0-0.1,0-0.2,0s-0.1-0.1-0.1-0.1c0,0,0-0.1,0.1-0.1c0,0,0.1,0,0.2,0h0.3l1.4-3.9h-1c-0.1,0-0.1,0-0.2,0c0,0-0.1-0.1-0.1-0.1
		c0,0,0-0.1,0.1-0.1c0,0,0.1,0,0.2,0h1.7l1.6,4.2h0.3c0.1,0,0.1,0,0.2,0c0,0,0.1,0.1,0.1,0.1c0,0,0,0.1-0.1,0.1s-0.1,0-0.2,0h-1.2
		c-0.1,0-0.1,0-0.2,0s-0.1-0.1-0.1-0.1c0,0,0-0.1,0.1-0.1c0,0,0.1,0,0.2,0h0.6L426.7,216.7z M426.5,216.3l-0.9-2.4h-0.1l-0.9,2.4
		H426.5z"/>
	<path class="st9" d="M431.5,216.7h-2.2l-0.4,1.2h0.6c0.1,0,0.1,0,0.2,0c0,0,0.1,0.1,0.1,0.1c0,0,0,0.1-0.1,0.1s-0.1,0-0.2,0h-1.2
		c-0.1,0-0.1,0-0.2,0s-0.1-0.1-0.1-0.1c0,0,0-0.1,0.1-0.1c0,0,0.1,0,0.2,0h0.3l1.4-3.9h-1c-0.1,0-0.1,0-0.2,0c0,0-0.1-0.1-0.1-0.1
		c0,0,0-0.1,0.1-0.1c0,0,0.1,0,0.2,0h1.7l1.6,4.2h0.3c0.1,0,0.1,0,0.2,0c0,0,0.1,0.1,0.1,0.1c0,0,0,0.1-0.1,0.1s-0.1,0-0.2,0h-1.2
		c-0.1,0-0.1,0-0.2,0s-0.1-0.1-0.1-0.1c0,0,0-0.1,0.1-0.1c0,0,0.1,0,0.2,0h0.6L431.5,216.7z M431.3,216.3l-0.9-2.4h-0.1l-0.9,2.4
		H431.3z"/>
	<path class="st9" d="M436.3,216.7h-2.2l-0.4,1.2h0.6c0.1,0,0.1,0,0.2,0c0,0,0.1,0.1,0.1,0.1c0,0,0,0.1-0.1,0.1s-0.1,0-0.2,0h-1.2
		c-0.1,0-0.1,0-0.2,0s-0.1-0.1-0.1-0.1c0,0,0-0.1,0.1-0.1c0,0,0.1,0,0.2,0h0.3l1.4-3.9h-1c-0.1,0-0.1,0-0.2,0c0,0-0.1-0.1-0.1-0.1
		c0,0,0-0.1,0.1-0.1c0,0,0.1,0,0.2,0h1.7l1.6,4.2h0.3c0.1,0,0.1,0,0.2,0c0,0,0.1,0.1,0.1,0.1c0,0,0,0.1-0.1,0.1s-0.1,0-0.2,0h-1.2
		c-0.1,0-0.1,0-0.2,0s-0.1-0.1-0.1-0.1c0,0,0-0.1,0.1-0.1c0,0,0.1,0,0.2,0h0.6L436.3,216.7z M436.1,216.3l-0.9-2.4h-0.1l-0.9,2.4
		H436.1z"/>
</g>
<g>
	<path class="st9" d="M353.7,220.9v3.9h0.9c0.1,0,0.1,0,0.2,0c0,0,0.1,0.1,0.1,0.1c0,0,0,0.1-0.1,0.1s-0.1,0-0.2,0h-2
		c-0.1,0-0.1,0-0.2,0s-0.1-0.1-0.1-0.1c0,0,0-0.1,0.1-0.1c0,0,0.1,0,0.2,0h0.9v-3.9h-1.3v1.1c0,0.1,0,0.1,0,0.2c0,0-0.1,0.1-0.1,0.1
		c0,0-0.1,0-0.1-0.1c0,0,0-0.1,0-0.2v-1.5h3.7v1.5c0,0.1,0,0.1,0,0.2c0,0-0.1,0.1-0.1,0.1s-0.1,0-0.1-0.1c0,0,0-0.1,0-0.2v-1.1
		H353.7z"/>
	<path class="st9" d="M358.5,220.9v3.9h0.9c0.1,0,0.1,0,0.2,0c0,0,0.1,0.1,0.1,0.1c0,0,0,0.1-0.1,0.1s-0.1,0-0.2,0h-2
		c-0.1,0-0.1,0-0.2,0s-0.1-0.1-0.1-0.1c0,0,0-0.1,0.1-0.1c0,0,0.1,0,0.2,0h0.9v-3.9h-1.3v1.1c0,0.1,0,0.1,0,0.2c0,0-0.1,0.1-0.1,0.1
		c0,0-0.1,0-0.1-0.1c0,0,0-0.1,0-0.2v-1.5h3.7v1.5c0,0.1,0,0.1,0,0.2c0,0-0.1,0.1-0.1,0.1s-0.1,0-0.1-0.1c0,0,0-0.1,0-0.2v-1.1
		H358.5z"/>
	<path class="st9" d="M363.3,220.9v3.9h0.9c0.1,0,0.1,0,0.2,0c0,0,0.1,0.1,0.1,0.1c0,0,0,0.1-0.1,0.1s-0.1,0-0.2,0h-2
		c-0.1,0-0.1,0-0.2,0s-0.1-0.1-0.1-0.1c0,0,0-0.1,0.1-0.1c0,0,0.1,0,0.2,0h0.9v-3.9h-1.3v1.1c0,0.1,0,0.1,0,0.2c0,0-0.1,0.1-0.1,0.1
		c0,0-0.1,0-0.1-0.1c0,0,0-0.1,0-0.2v-1.5h3.7v1.5c0,0.1,0,0.1,0,0.2c0,0-0.1,0.1-0.1,0.1s-0.1,0-0.1-0.1c0,0,0-0.1,0-0.2v-1.1
		H363.3z"/>
	<path class="st9" d="M368.1,220.9v3.9h0.9c0.1,0,0.1,0,0.2,0c0,0,0.1,0.1,0.1,0.1c0,0,0,0.1-0.1,0.1s-0.1,0-0.2,0h-2
		c-0.1,0-0.1,0-0.2,0s-0.1-0.1-0.1-0.1c0,0,0-0.1,0.1-0.1c0,0,0.1,0,0.2,0h0.9v-3.9h-1.3v1.1c0,0.1,0,0.1,0,0.2c0,0-0.1,0.1-0.1,0.1
		c0,0-0.1,0-0.1-0.1c0,0,0-0.1,0-0.2v-1.5h3.7v1.5c0,0.1,0,0.1,0,0.2c0,0-0.1,0.1-0.1,0.1s-0.1,0-0.1-0.1c0,0,0-0.1,0-0.2v-1.1
		H368.1z"/>
	<path class="st9" d="M372.9,220.9v3.9h0.9c0.1,0,0.1,0,0.2,0c0,0,0.1,0.1,0.1,0.1c0,0,0,0.1-0.1,0.1s-0.1,0-0.2,0h-2
		c-0.1,0-0.1,0-0.2,0s-0.1-0.1-0.1-0.1c0,0,0-0.1,0.1-0.1c0,0,0.1,0,0.2,0h0.9v-3.9h-1.3v1.1c0,0.1,0,0.1,0,0.2c0,0-0.1,0.1-0.1,0.1
		c0,0-0.1,0-0.1-0.1c0,0,0-0.1,0-0.2v-1.5h3.7v1.5c0,0.1,0,0.1,0,0.2c0,0-0.1,0.1-0.1,0.1s-0.1,0-0.1-0.1c0,0,0-0.1,0-0.2v-1.1
		H372.9z"/>
	<path class="st9" d="M377.7,220.9v3.9h0.9c0.1,0,0.1,0,0.2,0c0,0,0.1,0.1,0.1,0.1c0,0,0,0.1-0.1,0.1s-0.1,0-0.2,0h-2
		c-0.1,0-0.1,0-0.2,0s-0.1-0.1-0.1-0.1c0,0,0-0.1,0.1-0.1c0,0,0.1,0,0.2,0h0.9v-3.9h-1.3v1.1c0,0.1,0,0.1,0,0.2c0,0-0.1,0.1-0.1,0.1
		c0,0-0.1,0-0.1-0.1c0,0,0-0.1,0-0.2v-1.5h3.7v1.5c0,0.1,0,0.1,0,0.2c0,0-0.1,0.1-0.1,0.1s-0.1,0-0.1-0.1c0,0,0-0.1,0-0.2v-1.1
		H377.7z"/>
	<path class="st9" d="M382.5,220.9v3.9h0.9c0.1,0,0.1,0,0.2,0c0,0,0.1,0.1,0.1,0.1c0,0,0,0.1-0.1,0.1s-0.1,0-0.2,0h-2
		c-0.1,0-0.1,0-0.2,0s-0.1-0.1-0.1-0.1c0,0,0-0.1,0.1-0.1c0,0,0.1,0,0.2,0h0.9v-3.9h-1.3v1.1c0,0.1,0,0.1,0,0.2c0,0-0.1,0.1-0.1,0.1
		c0,0-0.1,0-0.1-0.1c0,0,0-0.1,0-0.2v-1.5h3.7v1.5c0,0.1,0,0.1,0,0.2c0,0-0.1,0.1-0.1,0.1s-0.1,0-0.1-0.1c0,0,0-0.1,0-0.2v-1.1
		H382.5z"/>
	<path class="st9" d="M387.3,220.9v3.9h0.9c0.1,0,0.1,0,0.2,0c0,0,0.1,0.1,0.1,0.1c0,0,0,0.1-0.1,0.1s-0.1,0-0.2,0h-2
		c-0.1,0-0.1,0-0.2,0s-0.1-0.1-0.1-0.1c0,0,0-0.1,0.1-0.1c0,0,0.1,0,0.2,0h0.9v-3.9h-1.3v1.1c0,0.1,0,0.1,0,0.2c0,0-0.1,0.1-0.1,0.1
		c0,0-0.1,0-0.1-0.1c0,0,0-0.1,0-0.2v-1.5h3.7v1.5c0,0.1,0,0.1,0,0.2c0,0-0.1,0.1-0.1,0.1s-0.1,0-0.1-0.1c0,0,0-0.1,0-0.2v-1.1
		H387.3z"/>
	<path class="st9" d="M392.1,220.9v3.9h0.9c0.1,0,0.1,0,0.2,0c0,0,0.1,0.1,0.1,0.1c0,0,0,0.1-0.1,0.1s-0.1,0-0.2,0h-2
		c-0.1,0-0.1,0-0.2,0s-0.1-0.1-0.1-0.1c0,0,0-0.1,0.1-0.1c0,0,0.1,0,0.2,0h0.9v-3.9h-1.3v1.1c0,0.1,0,0.1,0,0.2c0,0-0.1,0.1-0.1,0.1
		c0,0-0.1,0-0.1-0.1c0,0,0-0.1,0-0.2v-1.5h3.7v1.5c0,0.1,0,0.1,0,0.2c0,0-0.1,0.1-0.1,0.1s-0.1,0-0.1-0.1c0,0,0-0.1,0-0.2v-1.1
		H392.1z"/>
	<path class="st9" d="M397,220.9v3.9h0.9c0.1,0,0.1,0,0.2,0c0,0,0.1,0.1,0.1,0.1c0,0,0,0.1-0.1,0.1s-0.1,0-0.2,0h-2
		c-0.1,0-0.1,0-0.2,0s-0.1-0.1-0.1-0.1c0,0,0-0.1,0.1-0.1c0,0,0.1,0,0.2,0h0.9v-3.9h-1.3v1.1c0,0.1,0,0.1,0,0.2c0,0-0.1,0.1-0.1,0.1
		c0,0-0.1,0-0.1-0.1c0,0,0-0.1,0-0.2v-1.5h3.7v1.5c0,0.1,0,0.1,0,0.2c0,0-0.1,0.1-0.1,0.1s-0.1,0-0.1-0.1c0,0,0-0.1,0-0.2v-1.1H397z
		"/>
	<path class="st9" d="M401.8,220.9v3.9h0.9c0.1,0,0.1,0,0.2,0c0,0,0.1,0.1,0.1,0.1c0,0,0,0.1-0.1,0.1s-0.1,0-0.2,0h-2
		c-0.1,0-0.1,0-0.2,0s-0.1-0.1-0.1-0.1c0,0,0-0.1,0.1-0.1c0,0,0.1,0,0.2,0h0.9v-3.9h-1.3v1.1c0,0.1,0,0.1,0,0.2c0,0-0.1,0.1-0.1,0.1
		c0,0-0.1,0-0.1-0.1c0,0,0-0.1,0-0.2v-1.5h3.7v1.5c0,0.1,0,0.1,0,0.2c0,0-0.1,0.1-0.1,0.1s-0.1,0-0.1-0.1c0,0,0-0.1,0-0.2v-1.1
		H401.8z"/>
	<path class="st9" d="M406.6,220.9v3.9h0.9c0.1,0,0.1,0,0.2,0c0,0,0.1,0.1,0.1,0.1c0,0,0,0.1-0.1,0.1s-0.1,0-0.2,0h-2
		c-0.1,0-0.1,0-0.2,0s-0.1-0.1-0.1-0.1c0,0,0-0.1,0.1-0.1c0,0,0.1,0,0.2,0h0.9v-3.9h-1.3v1.1c0,0.1,0,0.1,0,0.2c0,0-0.1,0.1-0.1,0.1
		c0,0-0.1,0-0.1-0.1c0,0,0-0.1,0-0.2v-1.5h3.7v1.5c0,0.1,0,0.1,0,0.2c0,0-0.1,0.1-0.1,0.1s-0.1,0-0.1-0.1c0,0,0-0.1,0-0.2v-1.1
		H406.6z"/>
	<path class="st9" d="M411.4,220.9v3.9h0.9c0.1,0,0.1,0,0.2,0c0,0,0.1,0.1,0.1,0.1c0,0,0,0.1-0.1,0.1s-0.1,0-0.2,0h-2
		c-0.1,0-0.1,0-0.2,0s-0.1-0.1-0.1-0.1c0,0,0-0.1,0.1-0.1c0,0,0.1,0,0.2,0h0.9v-3.9h-1.3v1.1c0,0.1,0,0.1,0,0.2c0,0-0.1,0.1-0.1,0.1
		c0,0-0.1,0-0.1-0.1c0,0,0-0.1,0-0.2v-1.5h3.7v1.5c0,0.1,0,0.1,0,0.2c0,0-0.1,0.1-0.1,0.1s-0.1,0-0.1-0.1c0,0,0-0.1,0-0.2v-1.1
		H411.4z"/>
	<path class="st9" d="M416.2,220.9v3.9h0.9c0.1,0,0.1,0,0.2,0c0,0,0.1,0.1,0.1,0.1c0,0,0,0.1-0.1,0.1s-0.1,0-0.2,0h-2
		c-0.1,0-0.1,0-0.2,0s-0.1-0.1-0.1-0.1c0,0,0-0.1,0.1-0.1c0,0,0.1,0,0.2,0h0.9v-3.9h-1.3v1.1c0,0.1,0,0.1,0,0.2c0,0-0.1,0.1-0.1,0.1
		c0,0-0.1,0-0.1-0.1c0,0,0-0.1,0-0.2v-1.5h3.7v1.5c0,0.1,0,0.1,0,0.2c0,0-0.1,0.1-0.1,0.1s-0.1,0-0.1-0.1c0,0,0-0.1,0-0.2v-1.1
		H416.2z"/>
	<path class="st9" d="M421,220.9v3.9h0.9c0.1,0,0.1,0,0.2,0c0,0,0.1,0.1,0.1,0.1c0,0,0,0.1-0.1,0.1s-0.1,0-0.2,0h-2
		c-0.1,0-0.1,0-0.2,0s-0.1-0.1-0.1-0.1c0,0,0-0.1,0.1-0.1c0,0,0.1,0,0.2,0h0.9v-3.9h-1.3v1.1c0,0.1,0,0.1,0,0.2c0,0-0.1,0.1-0.1,0.1
		c0,0-0.1,0-0.1-0.1c0,0,0-0.1,0-0.2v-1.5h3.7v1.5c0,0.1,0,0.1,0,0.2c0,0-0.1,0.1-0.1,0.1s-0.1,0-0.1-0.1c0,0,0-0.1,0-0.2v-1.1H421z
		"/>
	<path class="st9" d="M425.8,220.9v3.9h0.9c0.1,0,0.1,0,0.2,0c0,0,0.1,0.1,0.1,0.1c0,0,0,0.1-0.1,0.1s-0.1,0-0.2,0h-2
		c-0.1,0-0.1,0-0.2,0s-0.1-0.1-0.1-0.1c0,0,0-0.1,0.1-0.1c0,0,0.1,0,0.2,0h0.9v-3.9h-1.3v1.1c0,0.1,0,0.1,0,0.2c0,0-0.1,0.1-0.1,0.1
		c0,0-0.1,0-0.1-0.1c0,0,0-0.1,0-0.2v-1.5h3.7v1.5c0,0.1,0,0.1,0,0.2c0,0-0.1,0.1-0.1,0.1s-0.1,0-0.1-0.1c0,0,0-0.1,0-0.2v-1.1
		H425.8z"/>
	<path class="st9" d="M430.6,220.9v3.9h0.9c0.1,0,0.1,0,0.2,0c0,0,0.1,0.1,0.1,0.1c0,0,0,0.1-0.1,0.1s-0.1,0-0.2,0h-2
		c-0.1,0-0.1,0-0.2,0s-0.1-0.1-0.1-0.1c0,0,0-0.1,0.1-0.1c0,0,0.1,0,0.2,0h0.9v-3.9h-1.3v1.1c0,0.1,0,0.1,0,0.2c0,0-0.1,0.1-0.1,0.1
		c0,0-0.1,0-0.1-0.1c0,0,0-0.1,0-0.2v-1.5h3.7v1.5c0,0.1,0,0.1,0,0.2c0,0-0.1,0.1-0.1,0.1s-0.1,0-0.1-0.1c0,0,0-0.1,0-0.2v-1.1
		H430.6z"/>
	<path class="st9" d="M435.4,220.9v3.9h0.9c0.1,0,0.1,0,0.2,0c0,0,0.1,0.1,0.1,0.1c0,0,0,0.1-0.1,0.1s-0.1,0-0.2,0h-2
		c-0.1,0-0.1,0-0.2,0s-0.1-0.1-0.1-0.1c0,0,0-0.1,0.1-0.1c0,0,0.1,0,0.2,0h0.9v-3.9h-1.3v1.1c0,0.1,0,0.1,0,0.2c0,0-0.1,0.1-0.1,0.1
		c0,0-0.1,0-0.1-0.1c0,0,0-0.1,0-0.2v-1.5h3.7v1.5c0,0.1,0,0.1,0,0.2c0,0-0.1,0.1-0.1,0.1s-0.1,0-0.1-0.1c0,0,0-0.1,0-0.2v-1.1
		H435.4z"/>
</g>
<line class="st11" x1="217.9" y1="221.9" x2="348.5" y2="221.9"/>
<line class="st8" x1="217.9" y1="297.9" x2="348.5" y2="297.9"/>
<g>
	<path class="st9" d="M354.7,298h-2.2l-0.4,1.2h0.6c0.1,0,0.1,0,0.2,0c0,0,0.1,0.1,0.1,0.1c0,0,0,0.1-0.1,0.1s-0.1,0-0.2,0h-1.2
		c-0.1,0-0.1,0-0.2,0s-0.1-0.1-0.1-0.1c0,0,0-0.1,0.1-0.1c0,0,0.1,0,0.2,0h0.3l1.4-3.9h-1c-0.1,0-0.1,0-0.2,0c0,0-0.1-0.1-0.1-0.1
		c0,0,0-0.1,0.1-0.1c0,0,0.1,0,0.2,0h1.7l1.6,4.2h0.3c0.1,0,0.1,0,0.2,0c0,0,0.1,0.1,0.1,0.1c0,0,0,0.1-0.1,0.1s-0.1,0-0.2,0h-1.2
		c-0.1,0-0.1,0-0.2,0s-0.1-0.1-0.1-0.1c0,0,0-0.1,0.1-0.1c0,0,0.1,0,0.2,0h0.6L354.7,298z M354.5,297.7l-0.9-2.4h-0.1l-0.9,2.4
		H354.5z"/>
	<path class="st9" d="M359.5,298h-2.2l-0.4,1.2h0.6c0.1,0,0.1,0,0.2,0c0,0,0.1,0.1,0.1,0.1c0,0,0,0.1-0.1,0.1s-0.1,0-0.2,0h-1.2
		c-0.1,0-0.1,0-0.2,0s-0.1-0.1-0.1-0.1c0,0,0-0.1,0.1-0.1c0,0,0.1,0,0.2,0h0.3l1.4-3.9h-1c-0.1,0-0.1,0-0.2,0c0,0-0.1-0.1-0.1-0.1
		c0,0,0-0.1,0.1-0.1c0,0,0.1,0,0.2,0h1.7l1.6,4.2h0.3c0.1,0,0.1,0,0.2,0c0,0,0.1,0.1,0.1,0.1c0,0,0,0.1-0.1,0.1s-0.1,0-0.2,0h-1.2
		c-0.1,0-0.1,0-0.2,0s-0.1-0.1-0.1-0.1c0,0,0-0.1,0.1-0.1c0,0,0.1,0,0.2,0h0.6L359.5,298z M359.3,297.7l-0.9-2.4h-0.1l-0.9,2.4
		H359.3z"/>
	<path class="st9" d="M364.3,298h-2.2l-0.4,1.2h0.6c0.1,0,0.1,0,0.2,0c0,0,0.1,0.1,0.1,0.1c0,0,0,0.1-0.1,0.1s-0.1,0-0.2,0h-1.2
		c-0.1,0-0.1,0-0.2,0s-0.1-0.1-0.1-0.1c0,0,0-0.1,0.1-0.1c0,0,0.1,0,0.2,0h0.3l1.4-3.9h-1c-0.1,0-0.1,0-0.2,0c0,0-0.1-0.1-0.1-0.1
		c0,0,0-0.1,0.1-0.1c0,0,0.1,0,0.2,0h1.7l1.6,4.2h0.3c0.1,0,0.1,0,0.2,0c0,0,0.1,0.1,0.1,0.1c0,0,0,0.1-0.1,0.1s-0.1,0-0.2,0h-1.2
		c-0.1,0-0.1,0-0.2,0s-0.1-0.1-0.1-0.1c0,0,0-0.1,0.1-0.1c0,0,0.1,0,0.2,0h0.6L364.3,298z M364.1,297.7l-0.9-2.4h-0.1l-0.9,2.4
		H364.1z"/>
	<path class="st9" d="M369.1,298h-2.2l-0.4,1.2h0.6c0.1,0,0.1,0,0.2,0c0,0,0.1,0.1,0.1,0.1c0,0,0,0.1-0.1,0.1s-0.1,0-0.2,0h-1.2
		c-0.1,0-0.1,0-0.2,0s-0.1-0.1-0.1-0.1c0,0,0-0.1,0.1-0.1c0,0,0.1,0,0.2,0h0.3l1.4-3.9h-1c-0.1,0-0.1,0-0.2,0c0,0-0.1-0.1-0.1-0.1
		c0,0,0-0.1,0.1-0.1c0,0,0.1,0,0.2,0h1.7l1.6,4.2h0.3c0.1,0,0.1,0,0.2,0c0,0,0.1,0.1,0.1,0.1c0,0,0,0.1-0.1,0.1s-0.1,0-0.2,0h-1.2
		c-0.1,0-0.1,0-0.2,0s-0.1-0.1-0.1-0.1c0,0,0-0.1,0.1-0.1c0,0,0.1,0,0.2,0h0.6L369.1,298z M368.9,297.7l-0.9-2.4h-0.1l-0.9,2.4
		H368.9z"/>
	<path class="st9" d="M373.9,298h-2.2l-0.4,1.2h0.6c0.1,0,0.1,0,0.2,0c0,0,0.1,0.1,0.1,0.1c0,0,0,0.1-0.1,0.1s-0.1,0-0.2,0h-1.2
		c-0.1,0-0.1,0-0.2,0s-0.1-0.1-0.1-0.1c0,0,0-0.1,0.1-0.1c0,0,0.1,0,0.2,0h0.3l1.4-3.9h-1c-0.1,0-0.1,0-0.2,0c0,0-0.1-0.1-0.1-0.1
		c0,0,0-0.1,0.1-0.1c0,0,0.1,0,0.2,0h1.7l1.6,4.2h0.3c0.1,0,0.1,0,0.2,0c0,0,0.1,0.1,0.1,0.1c0,0,0,0.1-0.1,0.1s-0.1,0-0.2,0h-1.2
		c-0.1,0-0.1,0-0.2,0s-0.1-0.1-0.1-0.1c0,0,0-0.1,0.1-0.1c0,0,0.1,0,0.2,0h0.6L373.9,298z M373.7,297.7l-0.9-2.4h-0.1l-0.9,2.4
		H373.7z"/>
	<path class="st9" d="M378.7,298h-2.2l-0.4,1.2h0.6c0.1,0,0.1,0,0.2,0c0,0,0.1,0.1,0.1,0.1c0,0,0,0.1-0.1,0.1s-0.1,0-0.2,0h-1.2
		c-0.1,0-0.1,0-0.2,0s-0.1-0.1-0.1-0.1c0,0,0-0.1,0.1-0.1c0,0,0.1,0,0.2,0h0.3l1.4-3.9h-1c-0.1,0-0.1,0-0.2,0c0,0-0.1-0.1-0.1-0.1
		c0,0,0-0.1,0.1-0.1c0,0,0.1,0,0.2,0h1.7l1.6,4.2h0.3c0.1,0,0.1,0,0.2,0c0,0,0.1,0.1,0.1,0.1c0,0,0,0.1-0.1,0.1s-0.1,0-0.2,0h-1.2
		c-0.1,0-0.1,0-0.2,0s-0.1-0.1-0.1-0.1c0,0,0-0.1,0.1-0.1c0,0,0.1,0,0.2,0h0.6L378.7,298z M378.5,297.7l-0.9-2.4h-0.1l-0.9,2.4
		H378.5z"/>
	<path class="st9" d="M383.5,298h-2.2l-0.4,1.2h0.6c0.1,0,0.1,0,0.2,0c0,0,0.1,0.1,0.1,0.1c0,0,0,0.1-0.1,0.1s-0.1,0-0.2,0h-1.2
		c-0.1,0-0.1,0-0.2,0s-0.1-0.1-0.1-0.1c0,0,0-0.1,0.1-0.1c0,0,0.1,0,0.2,0h0.3l1.4-3.9h-1c-0.1,0-0.1,0-0.2,0c0,0-0.1-0.1-0.1-0.1
		c0,0,0-0.1,0.1-0.1c0,0,0.1,0,0.2,0h1.7l1.6,4.2h0.3c0.1,0,0.1,0,0.2,0c0,0,0.1,0.1,0.1,0.1c0,0,0,0.1-0.1,0.1s-0.1,0-0.2,0h-1.2
		c-0.1,0-0.1,0-0.2,0s-0.1-0.1-0.1-0.1c0,0,0-0.1,0.1-0.1c0,0,0.1,0,0.2,0h0.6L383.5,298z M383.3,297.7l-0.9-2.4h-0.1l-0.9,2.4
		H383.3z"/>
	<path class="st9" d="M388.3,298h-2.2l-0.4,1.2h0.6c0.1,0,0.1,0,0.2,0c0,0,0.1,0.1,0.1,0.1c0,0,0,0.1-0.1,0.1s-0.1,0-0.2,0h-1.2
		c-0.1,0-0.1,0-0.2,0s-0.1-0.1-0.1-0.1c0,0,0-0.1,0.1-0.1c0,0,0.1,0,0.2,0h0.3l1.4-3.9h-1c-0.1,0-0.1,0-0.2,0c0,0-0.1-0.1-0.1-0.1
		c0,0,0-0.1,0.1-0.1c0,0,0.1,0,0.2,0h1.7l1.6,4.2h0.3c0.1,0,0.1,0,0.2,0c0,0,0.1,0.1,0.1,0.1c0,0,0,0.1-0.1,0.1s-0.1,0-0.2,0h-1.2
		c-0.1,0-0.1,0-0.2,0s-0.1-0.1-0.1-0.1c0,0,0-0.1,0.1-0.1c0,0,0.1,0,0.2,0h0.6L388.3,298z M388.1,297.7l-0.9-2.4h-0.1l-0.9,2.4
		H388.1z"/>
	<path class="st9" d="M393.1,298h-2.2l-0.4,1.2h0.6c0.1,0,0.1,0,0.2,0c0,0,0.1,0.1,0.1,0.1c0,0,0,0.1-0.1,0.1s-0.1,0-0.2,0h-1.2
		c-0.1,0-0.1,0-0.2,0s-0.1-0.1-0.1-0.1c0,0,0-0.1,0.1-0.1c0,0,0.1,0,0.2,0h0.3l1.4-3.9h-1c-0.1,0-0.1,0-0.2,0c0,0-0.1-0.1-0.1-0.1
		c0,0,0-0.1,0.1-0.1c0,0,0.1,0,0.2,0h1.7l1.6,4.2h0.3c0.1,0,0.1,0,0.2,0c0,0,0.1,0.1,0.1,0.1c0,0,0,0.1-0.1,0.1s-0.1,0-0.2,0h-1.2
		c-0.1,0-0.1,0-0.2,0s-0.1-0.1-0.1-0.1c0,0,0-0.1,0.1-0.1c0,0,0.1,0,0.2,0h0.6L393.1,298z M392.9,297.7l-0.9-2.4h-0.1l-0.9,2.4
		H392.9z"/>
	<path class="st9" d="M397.9,298h-2.2l-0.4,1.2h0.6c0.1,0,0.1,0,0.2,0c0,0,0.1,0.1,0.1,0.1c0,0,0,0.1-0.1,0.1s-0.1,0-0.2,0h-1.2
		c-0.1,0-0.1,0-0.2,0s-0.1-0.1-0.1-0.1c0,0,0-0.1,0.1-0.1c0,0,0.1,0,0.2,0h0.3l1.4-3.9h-1c-0.1,0-0.1,0-0.2,0c0,0-0.1-0.1-0.1-0.1
		c0,0,0-0.1,0.1-0.1c0,0,0.1,0,0.2,0h1.7l1.6,4.2h0.3c0.1,0,0.1,0,0.2,0c0,0,0.1,0.1,0.1,0.1c0,0,0,0.1-0.1,0.1s-0.1,0-0.2,0h-1.2
		c-0.1,0-0.1,0-0.2,0s-0.1-0.1-0.1-0.1c0,0,0-0.1,0.1-0.1c0,0,0.1,0,0.2,0h0.6L397.9,298z M397.7,297.7l-0.9-2.4h-0.1l-0.9,2.4
		H397.7z"/>
	<path class="st9" d="M402.7,298h-2.2l-0.4,1.2h0.6c0.1,0,0.1,0,0.2,0c0,0,0.1,0.1,0.1,0.1c0,0,0,0.1-0.1,0.1s-0.1,0-0.2,0h-1.2
		c-0.1,0-0.1,0-0.2,0s-0.1-0.1-0.1-0.1c0,0,0-0.1,0.1-0.1c0,0,0.1,0,0.2,0h0.3l1.4-3.9h-1c-0.1,0-0.1,0-0.2,0c0,0-0.1-0.1-0.1-0.1
		c0,0,0-0.1,0.1-0.1c0,0,0.1,0,0.2,0h1.7l1.6,4.2h0.3c0.1,0,0.1,0,0.2,0c0,0,0.1,0.1,0.1,0.1c0,0,0,0.1-0.1,0.1s-0.1,0-0.2,0h-1.2
		c-0.1,0-0.1,0-0.2,0s-0.1-0.1-0.1-0.1c0,0,0-0.1,0.1-0.1c0,0,0.1,0,0.2,0h0.6L402.7,298z M402.5,297.7l-0.9-2.4h-0.1l-0.9,2.4
		H402.5z"/>
	<path class="st9" d="M407.5,298h-2.2l-0.4,1.2h0.6c0.1,0,0.1,0,0.2,0c0,0,0.1,0.1,0.1,0.1c0,0,0,0.1-0.1,0.1s-0.1,0-0.2,0h-1.2
		c-0.1,0-0.1,0-0.2,0s-0.1-0.1-0.1-0.1c0,0,0-0.1,0.1-0.1c0,0,0.1,0,0.2,0h0.3l1.4-3.9h-1c-0.1,0-0.1,0-0.2,0c0,0-0.1-0.1-0.1-0.1
		c0,0,0-0.1,0.1-0.1c0,0,0.1,0,0.2,0h1.7l1.6,4.2h0.3c0.1,0,0.1,0,0.2,0c0,0,0.1,0.1,0.1,0.1c0,0,0,0.1-0.1,0.1s-0.1,0-0.2,0h-1.2
		c-0.1,0-0.1,0-0.2,0s-0.1-0.1-0.1-0.1c0,0,0-0.1,0.1-0.1c0,0,0.1,0,0.2,0h0.6L407.5,298z M407.3,297.7l-0.9-2.4h-0.1l-0.9,2.4
		H407.3z"/>
	<path class="st9" d="M412.3,298h-2.2l-0.4,1.2h0.6c0.1,0,0.1,0,0.2,0c0,0,0.1,0.1,0.1,0.1c0,0,0,0.1-0.1,0.1s-0.1,0-0.2,0h-1.2
		c-0.1,0-0.1,0-0.2,0s-0.1-0.1-0.1-0.1c0,0,0-0.1,0.1-0.1c0,0,0.1,0,0.2,0h0.3l1.4-3.9h-1c-0.1,0-0.1,0-0.2,0c0,0-0.1-0.1-0.1-0.1
		c0,0,0-0.1,0.1-0.1c0,0,0.1,0,0.2,0h1.7l1.6,4.2h0.3c0.1,0,0.1,0,0.2,0c0,0,0.1,0.1,0.1,0.1c0,0,0,0.1-0.1,0.1s-0.1,0-0.2,0h-1.2
		c-0.1,0-0.1,0-0.2,0s-0.1-0.1-0.1-0.1c0,0,0-0.1,0.1-0.1c0,0,0.1,0,0.2,0h0.6L412.3,298z M412.1,297.7l-0.9-2.4h-0.1l-0.9,2.4
		H412.1z"/>
	<path class="st9" d="M417.1,298h-2.2l-0.4,1.2h0.6c0.1,0,0.1,0,0.2,0c0,0,0.1,0.1,0.1,0.1c0,0,0,0.1-0.1,0.1s-0.1,0-0.2,0h-1.2
		c-0.1,0-0.1,0-0.2,0s-0.1-0.1-0.1-0.1c0,0,0-0.1,0.1-0.1c0,0,0.1,0,0.2,0h0.3l1.4-3.9h-1c-0.1,0-0.1,0-0.2,0c0,0-0.1-0.1-0.1-0.1
		c0,0,0-0.1,0.1-0.1c0,0,0.1,0,0.2,0h1.7l1.6,4.2h0.3c0.1,0,0.1,0,0.2,0c0,0,0.1,0.1,0.1,0.1c0,0,0,0.1-0.1,0.1s-0.1,0-0.2,0h-1.2
		c-0.1,0-0.1,0-0.2,0s-0.1-0.1-0.1-0.1c0,0,0-0.1,0.1-0.1c0,0,0.1,0,0.2,0h0.6L417.1,298z M416.9,297.7l-0.9-2.4h-0.1l-0.9,2.4
		H416.9z"/>
	<path class="st9" d="M421.9,298h-2.2l-0.4,1.2h0.6c0.1,0,0.1,0,0.2,0c0,0,0.1,0.1,0.1,0.1c0,0,0,0.1-0.1,0.1s-0.1,0-0.2,0h-1.2
		c-0.1,0-0.1,0-0.2,0s-0.1-0.1-0.1-0.1c0,0,0-0.1,0.1-0.1c0,0,0.1,0,0.2,0h0.3l1.4-3.9h-1c-0.1,0-0.1,0-0.2,0c0,0-0.1-0.1-0.1-0.1
		c0,0,0-0.1,0.1-0.1c0,0,0.1,0,0.2,0h1.7l1.6,4.2h0.3c0.1,0,0.1,0,0.2,0c0,0,0.1,0.1,0.1,0.1c0,0,0,0.1-0.1,0.1s-0.1,0-0.2,0h-1.2
		c-0.1,0-0.1,0-0.2,0s-0.1-0.1-0.1-0.1c0,0,0-0.1,0.1-0.1c0,0,0.1,0,0.2,0h0.6L421.9,298z M421.7,297.7l-0.9-2.4h-0.1l-0.9,2.4
		H421.7z"/>
	<path class="st9" d="M426.7,298h-2.2l-0.4,1.2h0.6c0.1,0,0.1,0,0.2,0c0,0,0.1,0.1,0.1,0.1c0,0,0,0.1-0.1,0.1s-0.1,0-0.2,0h-1.2
		c-0.1,0-0.1,0-0.2,0s-0.1-0.1-0.1-0.1c0,0,0-0.1,0.1-0.1c0,0,0.1,0,0.2,0h0.3l1.4-3.9h-1c-0.1,0-0.1,0-0.2,0c0,0-0.1-0.1-0.1-0.1
		c0,0,0-0.1,0.1-0.1c0,0,0.1,0,0.2,0h1.7l1.6,4.2h0.3c0.1,0,0.1,0,0.2,0c0,0,0.1,0.1,0.1,0.1c0,0,0,0.1-0.1,0.1s-0.1,0-0.2,0h-1.2
		c-0.1,0-0.1,0-0.2,0s-0.1-0.1-0.1-0.1c0,0,0-0.1,0.1-0.1c0,0,0.1,0,0.2,0h0.6L426.7,298z M426.5,297.7l-0.9-2.4h-0.1l-0.9,2.4
		H426.5z"/>
	<path class="st9" d="M431.5,298h-2.2l-0.4,1.2h0.6c0.1,0,0.1,0,0.2,0c0,0,0.1,0.1,0.1,0.1c0,0,0,0.1-0.1,0.1s-0.1,0-0.2,0h-1.2
		c-0.1,0-0.1,0-0.2,0s-0.1-0.1-0.1-0.1c0,0,0-0.1,0.1-0.1c0,0,0.1,0,0.2,0h0.3l1.4-3.9h-1c-0.1,0-0.1,0-0.2,0c0,0-0.1-0.1-0.1-0.1
		c0,0,0-0.1,0.1-0.1c0,0,0.1,0,0.2,0h1.7l1.6,4.2h0.3c0.1,0,0.1,0,0.2,0c0,0,0.1,0.1,0.1,0.1c0,0,0,0.1-0.1,0.1s-0.1,0-0.2,0h-1.2
		c-0.1,0-0.1,0-0.2,0s-0.1-0.1-0.1-0.1c0,0,0-0.1,0.1-0.1c0,0,0.1,0,0.2,0h0.6L431.5,298z M431.3,297.7l-0.9-2.4h-0.1l-0.9,2.4
		H431.3z"/>
	<path class="st9" d="M436.3,298h-2.2l-0.4,1.2h0.6c0.1,0,0.1,0,0.2,0c0,0,0.1,0.1,0.1,0.1c0,0,0,0.1-0.1,0.1s-0.1,0-0.2,0h-1.2
		c-0.1,0-0.1,0-0.2,0s-0.1-0.1-0.1-0.1c0,0,0-0.1,0.1-0.1c0,0,0.1,0,0.2,0h0.3l1.4-3.9h-1c-0.1,0-0.1,0-0.2,0c0,0-0.1-0.1-0.1-0.1
		c0,0,0-0.1,0.1-0.1c0,0,0.1,0,0.2,0h1.7l1.6,4.2h0.3c0.1,0,0.1,0,0.2,0c0,0,0.1,0.1,0.1,0.1c0,0,0,0.1-0.1,0.1s-0.1,0-0.2,0h-1.2
		c-0.1,0-0.1,0-0.2,0s-0.1-0.1-0.1-0.1c0,0,0-0.1,0.1-0.1c0,0,0.1,0,0.2,0h0.6L436.3,298z M436.1,297.7l-0.9-2.4h-0.1l-0.9,2.4
		H436.1z"/>
</g>
<g>
	<path class="st9" d="M353.7,302.2v3.9h0.9c0.1,0,0.1,0,0.2,0c0,0,0.1,0.1,0.1,0.1c0,0,0,0.1-0.1,0.1c0,0-0.1,0-0.2,0h-2
		c-0.1,0-0.1,0-0.2,0c0,0-0.1-0.1-0.1-0.1c0,0,0-0.1,0.1-0.1c0,0,0.1,0,0.2,0h0.9v-3.9h-1.3v1.1c0,0.1,0,0.1,0,0.2
		c0,0-0.1,0.1-0.1,0.1c0,0-0.1,0-0.1-0.1c0,0,0-0.1,0-0.2v-1.5h3.7v1.5c0,0.1,0,0.1,0,0.2c0,0-0.1,0.1-0.1,0.1c0,0-0.1,0-0.1-0.1
		c0,0,0-0.1,0-0.2v-1.1H353.7z"/>
	<path class="st9" d="M358.5,302.2v3.9h0.9c0.1,0,0.1,0,0.2,0c0,0,0.1,0.1,0.1,0.1c0,0,0,0.1-0.1,0.1c0,0-0.1,0-0.2,0h-2
		c-0.1,0-0.1,0-0.2,0c0,0-0.1-0.1-0.1-0.1c0,0,0-0.1,0.1-0.1c0,0,0.1,0,0.2,0h0.9v-3.9h-1.3v1.1c0,0.1,0,0.1,0,0.2
		c0,0-0.1,0.1-0.1,0.1c0,0-0.1,0-0.1-0.1c0,0,0-0.1,0-0.2v-1.5h3.7v1.5c0,0.1,0,0.1,0,0.2c0,0-0.1,0.1-0.1,0.1c0,0-0.1,0-0.1-0.1
		c0,0,0-0.1,0-0.2v-1.1H358.5z"/>
	<path class="st9" d="M363.3,302.2v3.9h0.9c0.1,0,0.1,0,0.2,0c0,0,0.1,0.1,0.1,0.1c0,0,0,0.1-0.1,0.1c0,0-0.1,0-0.2,0h-2
		c-0.1,0-0.1,0-0.2,0c0,0-0.1-0.1-0.1-0.1c0,0,0-0.1,0.1-0.1c0,0,0.1,0,0.2,0h0.9v-3.9h-1.3v1.1c0,0.1,0,0.1,0,0.2
		c0,0-0.1,0.1-0.1,0.1c0,0-0.1,0-0.1-0.1c0,0,0-0.1,0-0.2v-1.5h3.7v1.5c0,0.1,0,0.1,0,0.2c0,0-0.1,0.1-0.1,0.1c0,0-0.1,0-0.1-0.1
		c0,0,0-0.1,0-0.2v-1.1H363.3z"/>
	<path class="st9" d="M368.1,302.2v3.9h0.9c0.1,0,0.1,0,0.2,0c0,0,0.1,0.1,0.1,0.1c0,0,0,0.1-0.1,0.1c0,0-0.1,0-0.2,0h-2
		c-0.1,0-0.1,0-0.2,0c0,0-0.1-0.1-0.1-0.1c0,0,0-0.1,0.1-0.1c0,0,0.1,0,0.2,0h0.9v-3.9h-1.3v1.1c0,0.1,0,0.1,0,0.2
		c0,0-0.1,0.1-0.1,0.1c0,0-0.1,0-0.1-0.1c0,0,0-0.1,0-0.2v-1.5h3.7v1.5c0,0.1,0,0.1,0,0.2c0,0-0.1,0.1-0.1,0.1c0,0-0.1,0-0.1-0.1
		c0,0,0-0.1,0-0.2v-1.1H368.1z"/>
	<path class="st9" d="M372.9,302.2v3.9h0.9c0.1,0,0.1,0,0.2,0c0,0,0.1,0.1,0.1,0.1c0,0,0,0.1-0.1,0.1c0,0-0.1,0-0.2,0h-2
		c-0.1,0-0.1,0-0.2,0c0,0-0.1-0.1-0.1-0.1c0,0,0-0.1,0.1-0.1c0,0,0.1,0,0.2,0h0.9v-3.9h-1.3v1.1c0,0.1,0,0.1,0,0.2
		c0,0-0.1,0.1-0.1,0.1c0,0-0.1,0-0.1-0.1c0,0,0-0.1,0-0.2v-1.5h3.7v1.5c0,0.1,0,0.1,0,0.2c0,0-0.1,0.1-0.1,0.1c0,0-0.1,0-0.1-0.1
		c0,0,0-0.1,0-0.2v-1.1H372.9z"/>
	<path class="st9" d="M377.7,302.2v3.9h0.9c0.1,0,0.1,0,0.2,0c0,0,0.1,0.1,0.1,0.1c0,0,0,0.1-0.1,0.1c0,0-0.1,0-0.2,0h-2
		c-0.1,0-0.1,0-0.2,0c0,0-0.1-0.1-0.1-0.1c0,0,0-0.1,0.1-0.1c0,0,0.1,0,0.2,0h0.9v-3.9h-1.3v1.1c0,0.1,0,0.1,0,0.2
		c0,0-0.1,0.1-0.1,0.1c0,0-0.1,0-0.1-0.1c0,0,0-0.1,0-0.2v-1.5h3.7v1.5c0,0.1,0,0.1,0,0.2c0,0-0.1,0.1-0.1,0.1c0,0-0.1,0-0.1-0.1
		c0,0,0-0.1,0-0.2v-1.1H377.7z"/>
	<path class="st9" d="M382.5,302.2v3.9h0.9c0.1,0,0.1,0,0.2,0c0,0,0.1,0.1,0.1,0.1c0,0,0,0.1-0.1,0.1c0,0-0.1,0-0.2,0h-2
		c-0.1,0-0.1,0-0.2,0c0,0-0.1-0.1-0.1-0.1c0,0,0-0.1,0.1-0.1c0,0,0.1,0,0.2,0h0.9v-3.9h-1.3v1.1c0,0.1,0,0.1,0,0.2
		c0,0-0.1,0.1-0.1,0.1c0,0-0.1,0-0.1-0.1c0,0,0-0.1,0-0.2v-1.5h3.7v1.5c0,0.1,0,0.1,0,0.2c0,0-0.1,0.1-0.1,0.1c0,0-0.1,0-0.1-0.1
		c0,0,0-0.1,0-0.2v-1.1H382.5z"/>
	<path class="st9" d="M387.3,302.2v3.9h0.9c0.1,0,0.1,0,0.2,0c0,0,0.1,0.1,0.1,0.1c0,0,0,0.1-0.1,0.1c0,0-0.1,0-0.2,0h-2
		c-0.1,0-0.1,0-0.2,0c0,0-0.1-0.1-0.1-0.1c0,0,0-0.1,0.1-0.1c0,0,0.1,0,0.2,0h0.9v-3.9h-1.3v1.1c0,0.1,0,0.1,0,0.2
		c0,0-0.1,0.1-0.1,0.1c0,0-0.1,0-0.1-0.1c0,0,0-0.1,0-0.2v-1.5h3.7v1.5c0,0.1,0,0.1,0,0.2c0,0-0.1,0.1-0.1,0.1c0,0-0.1,0-0.1-0.1
		c0,0,0-0.1,0-0.2v-1.1H387.3z"/>
	<path class="st9" d="M392.1,302.2v3.9h0.9c0.1,0,0.1,0,0.2,0c0,0,0.1,0.1,0.1,0.1c0,0,0,0.1-0.1,0.1c0,0-0.1,0-0.2,0h-2
		c-0.1,0-0.1,0-0.2,0c0,0-0.1-0.1-0.1-0.1c0,0,0-0.1,0.1-0.1c0,0,0.1,0,0.2,0h0.9v-3.9h-1.3v1.1c0,0.1,0,0.1,0,0.2
		c0,0-0.1,0.1-0.1,0.1c0,0-0.1,0-0.1-0.1c0,0,0-0.1,0-0.2v-1.5h3.7v1.5c0,0.1,0,0.1,0,0.2c0,0-0.1,0.1-0.1,0.1c0,0-0.1,0-0.1-0.1
		c0,0,0-0.1,0-0.2v-1.1H392.1z"/>
	<path class="st9" d="M396.9,302.2v3.9h0.9c0.1,0,0.1,0,0.2,0c0,0,0.1,0.1,0.1,0.1c0,0,0,0.1-0.1,0.1c0,0-0.1,0-0.2,0h-2
		c-0.1,0-0.1,0-0.2,0c0,0-0.1-0.1-0.1-0.1c0,0,0-0.1,0.1-0.1c0,0,0.1,0,0.2,0h0.9v-3.9h-1.3v1.1c0,0.1,0,0.1,0,0.2
		c0,0-0.1,0.1-0.1,0.1c0,0-0.1,0-0.1-0.1c0,0,0-0.1,0-0.2v-1.5h3.7v1.5c0,0.1,0,0.1,0,0.2c0,0-0.1,0.1-0.1,0.1c0,0-0.1,0-0.1-0.1
		c0,0,0-0.1,0-0.2v-1.1H396.9z"/>
	<path class="st9" d="M401.8,302.2v3.9h0.9c0.1,0,0.1,0,0.2,0c0,0,0.1,0.1,0.1,0.1c0,0,0,0.1-0.1,0.1c0,0-0.1,0-0.2,0h-2
		c-0.1,0-0.1,0-0.2,0c0,0-0.1-0.1-0.1-0.1c0,0,0-0.1,0.1-0.1c0,0,0.1,0,0.2,0h0.9v-3.9h-1.3v1.1c0,0.1,0,0.1,0,0.2
		c0,0-0.1,0.1-0.1,0.1c0,0-0.1,0-0.1-0.1c0,0,0-0.1,0-0.2v-1.5h3.7v1.5c0,0.1,0,0.1,0,0.2c0,0-0.1,0.1-0.1,0.1c0,0-0.1,0-0.1-0.1
		c0,0,0-0.1,0-0.2v-1.1H401.8z"/>
	<path class="st9" d="M406.6,302.2v3.9h0.9c0.1,0,0.1,0,0.2,0c0,0,0.1,0.1,0.1,0.1c0,0,0,0.1-0.1,0.1c0,0-0.1,0-0.2,0h-2
		c-0.1,0-0.1,0-0.2,0c0,0-0.1-0.1-0.1-0.1c0,0,0-0.1,0.1-0.1c0,0,0.1,0,0.2,0h0.9v-3.9h-1.3v1.1c0,0.1,0,0.1,0,0.2
		c0,0-0.1,0.1-0.1,0.1c0,0-0.1,0-0.1-0.1c0,0,0-0.1,0-0.2v-1.5h3.7v1.5c0,0.1,0,0.1,0,0.2c0,0-0.1,0.1-0.1,0.1c0,0-0.1,0-0.1-0.1
		c0,0,0-0.1,0-0.2v-1.1H406.6z"/>
	<path class="st9" d="M411.4,302.2v3.9h0.9c0.1,0,0.1,0,0.2,0c0,0,0.1,0.1,0.1,0.1c0,0,0,0.1-0.1,0.1c0,0-0.1,0-0.2,0h-2
		c-0.1,0-0.1,0-0.2,0c0,0-0.1-0.1-0.1-0.1c0,0,0-0.1,0.1-0.1c0,0,0.1,0,0.2,0h0.9v-3.9h-1.3v1.1c0,0.1,0,0.1,0,0.2
		c0,0-0.1,0.1-0.1,0.1c0,0-0.1,0-0.1-0.1c0,0,0-0.1,0-0.2v-1.5h3.7v1.5c0,0.1,0,0.1,0,0.2c0,0-0.1,0.1-0.1,0.1c0,0-0.1,0-0.1-0.1
		c0,0,0-0.1,0-0.2v-1.1H411.4z"/>
	<path class="st9" d="M416.2,302.2v3.9h0.9c0.1,0,0.1,0,0.2,0c0,0,0.1,0.1,0.1,0.1c0,0,0,0.1-0.1,0.1c0,0-0.1,0-0.2,0h-2
		c-0.1,0-0.1,0-0.2,0c0,0-0.1-0.1-0.1-0.1c0,0,0-0.1,0.1-0.1c0,0,0.1,0,0.2,0h0.9v-3.9h-1.3v1.1c0,0.1,0,0.1,0,0.2
		c0,0-0.1,0.1-0.1,0.1c0,0-0.1,0-0.1-0.1c0,0,0-0.1,0-0.2v-1.5h3.7v1.5c0,0.1,0,0.1,0,0.2c0,0-0.1,0.1-0.1,0.1c0,0-0.1,0-0.1-0.1
		c0,0,0-0.1,0-0.2v-1.1H416.2z"/>
	<path class="st9" d="M421,302.2v3.9h0.9c0.1,0,0.1,0,0.2,0c0,0,0.1,0.1,0.1,0.1c0,0,0,0.1-0.1,0.1c0,0-0.1,0-0.2,0h-2
		c-0.1,0-0.1,0-0.2,0c0,0-0.1-0.1-0.1-0.1c0,0,0-0.1,0.1-0.1c0,0,0.1,0,0.2,0h0.9v-3.9h-1.3v1.1c0,0.1,0,0.1,0,0.2
		c0,0-0.1,0.1-0.1,0.1c0,0-0.1,0-0.1-0.1c0,0,0-0.1,0-0.2v-1.5h3.7v1.5c0,0.1,0,0.1,0,0.2c0,0-0.1,0.1-0.1,0.1c0,0-0.1,0-0.1-0.1
		c0,0,0-0.1,0-0.2v-1.1H421z"/>
	<path class="st9" d="M425.8,302.2v3.9h0.9c0.1,0,0.1,0,0.2,0c0,0,0.1,0.1,0.1,0.1c0,0,0,0.1-0.1,0.1c0,0-0.1,0-0.2,0h-2
		c-0.1,0-0.1,0-0.2,0c0,0-0.1-0.1-0.1-0.1c0,0,0-0.1,0.1-0.1c0,0,0.1,0,0.2,0h0.9v-3.9h-1.3v1.1c0,0.1,0,0.1,0,0.2
		c0,0-0.1,0.1-0.1,0.1c0,0-0.1,0-0.1-0.1c0,0,0-0.1,0-0.2v-1.5h3.7v1.5c0,0.1,0,0.1,0,0.2c0,0-0.1,0.1-0.1,0.1c0,0-0.1,0-0.1-0.1
		c0,0,0-0.1,0-0.2v-1.1H425.8z"/>
	<path class="st9" d="M430.6,302.2v3.9h0.9c0.1,0,0.1,0,0.2,0c0,0,0.1,0.1,0.1,0.1c0,0,0,0.1-0.1,0.1c0,0-0.1,0-0.2,0h-2
		c-0.1,0-0.1,0-0.2,0c0,0-0.1-0.1-0.1-0.1c0,0,0-0.1,0.1-0.1c0,0,0.1,0,0.2,0h0.9v-3.9h-1.3v1.1c0,0.1,0,0.1,0,0.2
		c0,0-0.1,0.1-0.1,0.1c0,0-0.1,0-0.1-0.1c0,0,0-0.1,0-0.2v-1.5h3.7v1.5c0,0.1,0,0.1,0,0.2c0,0-0.1,0.1-0.1,0.1c0,0-0.1,0-0.1-0.1
		c0,0,0-0.1,0-0.2v-1.1H430.6z"/>
	<path class="st9" d="M435.4,302.2v3.9h0.9c0.1,0,0.1,0,0.2,0c0,0,0.1,0.1,0.1,0.1c0,0,0,0.1-0.1,0.1c0,0-0.1,0-0.2,0h-2
		c-0.1,0-0.1,0-0.2,0c0,0-0.1-0.1-0.1-0.1c0,0,0-0.1,0.1-0.1c0,0,0.1,0,0.2,0h0.9v-3.9h-1.3v1.1c0,0.1,0,0.1,0,0.2
		c0,0-0.1,0.1-0.1,0.1c0,0-0.1,0-0.1-0.1c0,0,0-0.1,0-0.2v-1.5h3.7v1.5c0,0.1,0,0.1,0,0.2c0,0-0.1,0.1-0.1,0.1c0,0-0.1,0-0.1-0.1
		c0,0,0-0.1,0-0.2v-1.1H435.4z"/>
</g>
<line class="st11" x1="217.9" y1="303.2" x2="348.5" y2="303.2"/>
<text transform="matrix(1 0 0 1 139.8456 245.1697)"><tspan x="0" y="0" class="st5 st3 st4">Attachment of 1D</tspan><tspan x="-16.9" y="19.2" class="st5 st3 st4">sequencing adapter</tspan><tspan x="8.9" y="38.4" class="st5 st3 st4">and dual tethers</tspan></text>
<path class="st10" d="M283.4,264.5c0-6.5,5.2-11.7,11.7-11.7"/>
<g>
	<g>
		<line class="st6" x1="283.4" y1="240.3" x2="283.4" y2="271"/>
		<g>
			<path class="st7" d="M283.4,277c-1.1-2.8-2.9-6.4-4.8-8.5l4.8,1.7l4.8-1.7C286.2,270.6,284.4,274.1,283.4,277z"/>
		</g>
	</g>
</g>
<g>
	<g>
		<line class="st1" x1="21.3" y1="229.5" x2="21.3" y2="366.4"/>
		<g>
			<path class="st2" d="M21.3,374.2c-1.4-3.7-3.7-8.3-6.2-11.1l6.2,2.2l6.2-2.2C25,365.9,22.6,370.5,21.3,374.2z"/>
		</g>
	</g>
</g>
<g>
	<text transform="matrix(1.001 0 0 1 30.7557 305.445)" class="st2 st3 st4">15 min</text>
</g>
<line class="st12" x1="493.8" y1="309.1" x2="489.6" y2="305.8"/>
<line class="st12" x1="497" y1="319" x2="493.8" y2="309.1"/>
<polyline class="st12" points="495.3,306.5 491.1,303.2 465.8,303.2 "/>
<line class="st12" x1="463.3" y1="309.1" x2="459.1" y2="305.8"/>
<line class="st12" x1="466.5" y1="319" x2="463.3" y2="309.1"/>
<circle class="st13" cx="466.5" cy="319" r="2.7"/>
<polyline class="st14" points="464.8,306.5 460.6,303.2 439.8,303.2 "/>
<circle class="st13" cx="497" cy="319" r="2.7"/>
<line class="st15" x1="470.4" y1="136.5" x2="439.8" y2="136.5"/>
<polyline class="st14" points="464.8,145.1 460.6,141.8 439.8,141.8 "/>
<line class="st15" x1="470.4" y1="216.6" x2="439.8" y2="216.6"/>
<polyline class="st14" points="464.8,225.1 460.6,221.9 439.8,221.9 "/>
<line class="st15" x1="470.4" y1="297.9" x2="439.8" y2="297.9"/>
<line class="st12" x1="415.9" y1="248.1" x2="411.8" y2="244.8"/>
<line class="st12" x1="419.1" y1="258" x2="415.9" y2="248.1"/>
<circle class="st13" cx="419.1" cy="258" r="2.7"/>
<line class="st12" x1="437.5" y1="248.1" x2="433.3" y2="244.8"/>
<line class="st12" x1="440.6" y1="258" x2="437.5" y2="248.1"/>
<circle class="st13" cx="440.6" cy="258" r="2.7"/>
<g>
	<polyline class="st12" points="336.1,262.5 331.9,259.2 306.6,259.2 	"/>
	<g>
		<polyline class="st12" points="372.1,240.4 352.3,253.9 311,253.9 		"/>
		<path class="st16" d="M353.8,249.6c-0.1-6.2,4.6-6.4,5.8-5.3c1.3,1.2,6.5,6.9,3.4,8.4c-3,1.5-6.7,1.6-6.4,0.6
			C358.6,247.5,353.9,252.7,353.8,249.6z"/>
	</g>
</g>
<text transform="matrix(1 0 0 1 387.0681 258.7502)" class="st9 st17 st4">+</text>
<polyline class="st12" points="531.3,284.4 511.6,297.9 470.3,297.9 "/>
<path class="st16" d="M513.1,293.6c-0.1-6.2,4.6-6.4,5.8-5.3c1.3,1.2,6.5,6.9,3.4,8.4c-3,1.5-6.7,1.6-6.4,0.6
	C517.8,291.5,513.2,296.7,513.1,293.6z"/>
<g>
	<g>
		<path class="st9" d="M309.1,97.8v3.9h0.9c0.1,0,0.1,0,0.2,0s0.1,0.1,0.1,0.1c0,0,0,0.1-0.1,0.1s-0.1,0-0.2,0h-2
			c-0.1,0-0.1,0-0.2,0s-0.1-0.1-0.1-0.1c0,0,0-0.1,0.1-0.1s0.1,0,0.2,0h0.9v-3.9h-1.3v1.1c0,0.1,0,0.1,0,0.2s-0.1,0.1-0.1,0.1
			c0,0-0.1,0-0.1-0.1s0-0.1,0-0.2v-1.5h3.7v1.5c0,0.1,0,0.1,0,0.2s-0.1,0.1-0.1,0.1s-0.1,0-0.1-0.1s0-0.1,0-0.2v-1.1H309.1z"/>
		<path class="st9" d="M313.9,97.8v3.9h0.9c0.1,0,0.1,0,0.2,0s0.1,0.1,0.1,0.1c0,0,0,0.1-0.1,0.1s-0.1,0-0.2,0h-2
			c-0.1,0-0.1,0-0.2,0s-0.1-0.1-0.1-0.1c0,0,0-0.1,0.1-0.1s0.1,0,0.2,0h0.9v-3.9h-1.3v1.1c0,0.1,0,0.1,0,0.2s-0.1,0.1-0.1,0.1
			c0,0-0.1,0-0.1-0.1s0-0.1,0-0.2v-1.5h3.7v1.5c0,0.1,0,0.1,0,0.2s-0.1,0.1-0.1,0.1s-0.1,0-0.1-0.1s0-0.1,0-0.2v-1.1H313.9z"/>
		<path class="st9" d="M318.7,97.8v3.9h0.9c0.1,0,0.1,0,0.2,0s0.1,0.1,0.1,0.1c0,0,0,0.1-0.1,0.1s-0.1,0-0.2,0h-2
			c-0.1,0-0.1,0-0.2,0s-0.1-0.1-0.1-0.1c0,0,0-0.1,0.1-0.1s0.1,0,0.2,0h0.9v-3.9h-1.3v1.1c0,0.1,0,0.1,0,0.2s-0.1,0.1-0.1,0.1
			c0,0-0.1,0-0.1-0.1s0-0.1,0-0.2v-1.5h3.7v1.5c0,0.1,0,0.1,0,0.2s-0.1,0.1-0.1,0.1s-0.1,0-0.1-0.1s0-0.1,0-0.2v-1.1H318.7z"/>
		<path class="st9" d="M323.5,97.8v3.9h0.9c0.1,0,0.1,0,0.2,0s0.1,0.1,0.1,0.1c0,0,0,0.1-0.1,0.1s-0.1,0-0.2,0h-2
			c-0.1,0-0.1,0-0.2,0s-0.1-0.1-0.1-0.1c0,0,0-0.1,0.1-0.1s0.1,0,0.2,0h0.9v-3.9h-1.3v1.1c0,0.1,0,0.1,0,0.2s-0.1,0.1-0.1,0.1
			c0,0-0.1,0-0.1-0.1s0-0.1,0-0.2v-1.5h3.7v1.5c0,0.1,0,0.1,0,0.2s-0.1,0.1-0.1,0.1s-0.1,0-0.1-0.1s0-0.1,0-0.2v-1.1H323.5z"/>
		<path class="st9" d="M328.3,97.8v3.9h0.9c0.1,0,0.1,0,0.2,0s0.1,0.1,0.1,0.1c0,0,0,0.1-0.1,0.1s-0.1,0-0.2,0h-2
			c-0.1,0-0.1,0-0.2,0s-0.1-0.1-0.1-0.1c0,0,0-0.1,0.1-0.1s0.1,0,0.2,0h0.9v-3.9h-1.3v1.1c0,0.1,0,0.1,0,0.2s-0.1,0.1-0.1,0.1
			c0,0-0.1,0-0.1-0.1s0-0.1,0-0.2v-1.5h3.7v1.5c0,0.1,0,0.1,0,0.2s-0.1,0.1-0.1,0.1s-0.1,0-0.1-0.1s0-0.1,0-0.2v-1.1H328.3z"/>
		<path class="st9" d="M333.1,97.8v3.9h0.9c0.1,0,0.1,0,0.2,0s0.1,0.1,0.1,0.1c0,0,0,0.1-0.1,0.1s-0.1,0-0.2,0h-2
			c-0.1,0-0.1,0-0.2,0s-0.1-0.1-0.1-0.1c0,0,0-0.1,0.1-0.1s0.1,0,0.2,0h0.9v-3.9h-1.3v1.1c0,0.1,0,0.1,0,0.2s-0.1,0.1-0.1,0.1
			c0,0-0.1,0-0.1-0.1s0-0.1,0-0.2v-1.5h3.7v1.5c0,0.1,0,0.1,0,0.2s-0.1,0.1-0.1,0.1s-0.1,0-0.1-0.1s0-0.1,0-0.2v-1.1H333.1z"/>
	</g>
	<line class="st15" x1="368.2" y1="93.5" x2="337.6" y2="93.5"/>
	<polyline class="st14" points="362.6,102.1 358.4,98.8 337.6,98.8 	"/>
</g>
</svg>
